<svg xmlns="http://www.w3.org/2000/svg" viewBox="0 0 600 600">
  <circle cx="300" cy="300" r="300" fill="#cac5c0"/>
  <path d="M138 314.57c0-58.72 12.37-112.88 37.15-162.43C205.85 90.72 247.88 60 301.22 60c52.78 0 94 26.15 123.63 78.38 24.76 43.12 37.14 93.22 37.14 150.3 0 59.3-12.38 112.89-37.14 160.82-30.19 60.36-72.21 90.5-126.07 90.5-51.18 0-91.83-25.84-122.01-77.56C150.92 418.28 138 369 138 314.57Zm67.85-26.67c0 77.56 11.58 137.9 34.77 181.01 16.15 30.15 36.88 45.25 62.2 45.25 60.88 0 91.33-63.04 91.33-189.11 0-55.46-4.85-102.35-14.53-140.6-16.71-63.03-44.99-94.56-84.87-94.56-59.27 0-88.9 60.9-88.9 182.65z"/>
</svg>