<svg xmlns="http://www.w3.org/2000/svg" viewBox="0 0 600 600">
  <circle cx="300" cy="300" r="300" fill="#cac5c0"/>
  <path d="M211.84 111.81v302.63c0 36 15.4 54 46.15 54h7.83v20.51h-161.2v-20.52H115c29.59 0 44.4-18 44.4-53.99V215.96c0-36.48-12.93-54.73-38.8-54.73h-15.96v-20.55h6.1c31.42 0 59.8-9.62 85.14-28.88l15.97.01zm58.56 199.97c0-47.14 9.87-90.5 29.64-130.01 24.85-49.16 58.83-73.76 101.89-73.76 41.58 0 74.53 21.05 98.85 63.1 19.78 34.49 29.67 74.28 29.67 119.39 0 47.15-9.88 90.23-29.67 129.27C475.94 467.94 442.24 492 399.67 492c-41.06 0-73.76-20.79-98.12-62.37-20.78-34.97-31.15-74.25-31.15-117.86zm54.73-22.06c0 40.08 4.3 76.06 12.93 107.98 13.19 49.17 34.71 73.77 64.63 73.77 48.67 0 72.99-50.68 72.99-152.08 0-125.21-26.36-187.8-79.1-187.8-47.64 0-71.46 48.63-71.46 145.96v12.17z"/>
</svg>