<svg xmlns="http://www.w3.org/2000/svg" viewBox="0 0 600 600">
  <circle cx="300" cy="300" r="300" fill="#cac5c0"/>
  <path d="M238.99 109.93v305.04c0 36.3 15.1 54.42 45.21 54.42h7.68v20.7H129.39v-20.7h10.73c30.65 0 46-18.12 46-54.42V214.93c0-36.8-13.04-55.17-39.1-55.17h-16.1v-20.7h6.14c31.68 0 60.28-9.7 85.82-29.12h16.1zm194.69 0v305.04c0 36.3 15.07 54.42 45.22 54.42h7.67v20.7H324.05v-20.7h10.73c30.7 0 46-18.12 46-54.42V214.93c0-36.8-13.03-55.17-39.07-55.17h-16.1v-20.7h6.12c31.68 0 60.28-9.7 85.86-29.12h16.09z"/>
</svg>