<svg xmlns="http://www.w3.org/2000/svg" viewBox="0 0 600 600">
  <circle cx="300" cy="300" r="300" fill="#cac5c0"/>
  <path d="M213.78 115.3v295.08c0 35.25 14.57 52.9 43.66 52.9h7.67v20.67H108v-20.67h9.2c29.63 0 44.43-17.65 44.43-52.9V216.46c0-35.73-12.25-53.63-36.76-53.63h-16.1V142.9h6.12c30.65 0 58.25-9.19 82.77-27.6h16.12zm305.79 278.2-26.83 91.22H268.17V464.8c10.76-12.26 34.5-36.8 71.3-73.6a1501.24 1501.24 0 0 0 65.92-70.48c10.73-12.3 19.15-22.49 25.29-30.7 12.76-19.38 19.15-38.78 19.15-58.21s-5.89-36.55-17.63-51.37c-11.76-14.82-27.36-22.23-46.75-22.23-40.38 0-72.07 27.6-95.06 82.8l-19.92-7.68c27.6-76.65 70.51-114.98 128.76-114.98 28.6 0 53.15 9.73 73.58 29.13 20.42 19.43 30.65 43.69 30.65 72.82 0 37.3-21.2 73.57-63.59 108.85l-43.69 35.24c-28.13 23.52-51.37 45.75-69.77 66.66a230.85 230.85 0 0 0-7.64 8.46h117.27c17.87 0 31.15-3.34 39.86-9.98 8.67-6.61 16.6-18.64 23.73-36.03z"/>
</svg>