<svg xmlns="http://www.w3.org/2000/svg" viewBox="0 0 600 600">
  <circle cx="300" cy="300" r="300" fill="#cac5c0"/>
  <path d="M227.8 118.75V410c0 34.25 14.57 51.33 43.7 51.33h6.89v19.94H123.58v-19.94h9.97c29.63 0 44.44-17.08 44.44-51.33V219.14c0-35.24-12.53-52.89-37.55-52.89H125.1v-19.9h6.15c30.12 0 57.23-9.2 81.24-27.6zm130.3 193.14-9.2-16.88 6.92-3.84a943.23 943.23 0 0 0 64-43.3c19.64-14.55 29.5-31.01 29.5-49.42 0-12.77-4.86-23.39-14.56-31.8-9.7-8.45-20.46-12.66-32.18-12.66-29.66 0-60.82 17.9-93.53 53.67l-15.32-11.5c33.71-51.1 75.1-76.67 124.15-76.67 21.46 0 39.61 5.37 54.42 16.1 17.38 11.8 26.08 27.87 26.08 48.31 0 14.32-6.15 28.35-18.4 42.13-7.17 7.67-19.43 18.15-36.8 31.44l-6.9 6.13c3.06-.49 6.9-.77 11.51-.77 22.49 0 40.86 8.58 55.17 25.66 14.32 17.11 21.46 36.68 21.46 58.63 0 38.85-16.35 71.04-49.06 96.57-29.63 24.52-64.13 36.81-103.44 36.81-36.31 0-64.65-7.67-85.08-23.01l10.72-15.32c24.02 11.23 45.97 16.88 65.9 16.88 28.62 0 54.17-9.45 76.65-28.38 22.49-18.89 33.72-42.41 33.72-70.51 0-18.9-5.62-34.98-16.85-48.27-11.26-13.3-26.07-19.94-44.47-19.94-16.33.01-34.48 6.66-54.4 19.94z"/>
</svg>