<svg xmlns="http://www.w3.org/2000/svg" viewBox="0 0 600 600">
  <circle cx="300" cy="300" r="300" fill="#cac5c0"/>
  <path d="M217.85 116.84v294.32c0 34.73 14.56 52.1 43.65 52.1h6.93v19.93H112.06v-19.93h9.97c29.63 0 44.45-17.37 44.45-52.1V218c0-35.27-12.54-52.9-37.56-52.9h-15.34v-19.9h6.14c30.12 0 57.47-9.44 81.99-28.35h16.14zm258.28 262.12v30.65c0 34.25 11.98 51.37 36.02 51.37h9.95v19.9H375.7v-19.9h11.52c24.01 0 36.02-16.88 36.02-50.58v-31.44H276.07v-30.65l155.6-226.89h44.47V352.9h3.83c14.82 0 25.8-11.72 32.93-35.24h18.4l-9.2 61.32-45.97-.01zm-40.64-30.65V155.17L305.2 348.31Z"/>
</svg>