<svg xmlns="http://www.w3.org/2000/svg" viewBox="0 0 600 600">
  <circle cx="300" cy="300" r="300" fill="#cac5c0"/>
  <path d="M208.02 108.77v305.04c0 36.27 15.1 54.42 45.22 54.42h7.66v20.67H98.44v-20.67h10.72c30.65 0 46-18.15 46-54.42V213.75c0-36.77-13.04-55.17-39.11-55.17h-16.1v-20.7h6.14c31.69 0 60.28-9.7 85.83-29.1zm107.31 7.64h138.73c17.9 0 28.62-2.01 32.21-6.12h19.93l-11.5 52.13H325.31l-16.1 75.1c24-9.7 45.48-14.57 64.38-14.57 36.8 0 67.83 12.3 93.12 36.8 25.3 24.51 37.92 55.17 37.92 91.98 0 42.9-16.34 77.38-49.02 103.47-30.69 24-67.74 36.03-111.15 36.03-25.55 0-50.58-3.85-75.1-11.51l7.64-19.15c20.43 5.6 38.58 8.41 54.42 8.41 31.69 0 59.42-10.45 83.17-31.4 23.77-20.95 35.62-47.04 35.62-78.19 0-27.07-8.8-49.31-26.42-66.67-17.64-17.37-39.72-26.07-66.3-26.07-25.03 0-48.27 8.7-69.75 26.07l-13.01-2.3z"/>
</svg>