<svg xmlns="http://www.w3.org/2000/svg" viewBox="0 0 600 600">
  <circle cx="300" cy="300" r="300" fill="#cac5c0"/>
  <path d="M205.85 109.94v305.03c0 36.28 15.1 54.42 45.23 54.42h7.67v20.68H96.25V469.4H107c30.66 0 46.01-18.14 46.01-54.42V214.91c0-36.76-13.04-55.16-39.12-55.16h-16.1v-20.7h6.15c31.68 0 60.29-9.7 85.83-29.1zM326.2 274.7c28.1-26.53 56.45-39.86 85.08-39.86 30.66 0 55.42 12.3 74.35 36.81 17.37 22.48 26.04 49.83 26.04 82 0 34.75-10.22 65.16-30.66 91.2-22.47 29.13-50.58 43.69-84.29 43.69-39.86 0-72.04-17.37-96.59-52.1-21.45-30.66-32.19-66.94-32.19-108.85 0-44.94 12.26-86.23 36.81-123.79 24.5-37.55 57.48-64.24 98.86-80.09 22.98-8.7 47.54-13.04 73.58-13.04v19.93c-55.16 2.57-96.31 24.55-123.38 65.93-13.83 21.47-23.02 47.51-27.6 78.17zm-3.84 37.58c-.49 7.64-.77 15.32-.77 22.98 0 29.63 5.11 56.98 15.35 82.03 13.28 32.67 32.67 49.02 58.24 49.02 21.96 0 38.58-11.22 49.81-33.71 8.18-17.37 12.26-38.58 12.26-63.62 0-26.04-3.8-48.53-11.47-67.42-11.27-25.57-28.38-38.33-51.37-38.33-28.1 0-52.12 16.35-72.05 49.05z"/>
</svg>