<svg xmlns="http://www.w3.org/2000/svg" viewBox="0 0 600 600">
  <circle cx="300" cy="300" r="300" fill="#cac5c0"/>
  <path d="M202.27 114.92v295.85c0 35.27 14.58 52.88 43.7 52.88h6.9v19.93H95.73v-19.93h10.73c29.63 0 44.46-17.62 44.46-52.88V216.86c0-35.74-12.77-53.65-38.32-53.65H97.25V143.3h6.14c30.66 0 58.27-9.45 82.78-28.36h16.1zM398.5 485.87h-53.67v-6.12c0-34.24 10.73-77.4 32.18-129.51 32.71-77.7 62.88-137.47 90.44-179.36l3.1-5.37H344.84c-18.4 0-32.32 3.83-41.77 11.47-9.44 7.68-16.76 20.46-21.87 38.34h-20.67l23-101.17h13.8c7.64 3.59 21.47 5.37 41.39 5.37h165.54v29.13c-6.12 8.7-13.78 22.48-23 41.38-17.9 34.77-34.24 75.12-49.05 121.09-21.98 68.49-33.21 126.75-33.7 174.75z"/>
</svg>