<svg xmlns="http://www.w3.org/2000/svg" viewBox="0 0 600 600">
  <circle cx="300" cy="300" r="300" fill="#cac5c0"/>
  <path d="M215.85 115.3v296.6c0 35.28 14.57 52.9 43.69 52.9h7.67v19.92h-157.9V464.8h9.99c30.12 0 45.22-17.62 45.22-52.89V217.25c0-35.77-12.8-53.64-38.33-53.64h-15.35v-19.93h6.14c30.66 0 58.26-9.44 82.77-28.37h16.1v-.01zM351.5 297.7l-7.66-6.11c-24.01-16.35-39.86-29.38-47.5-39.08-9.2-12.79-13.81-27.6-13.81-44.47 0-28.1 12-51.09 36.01-68.98 21.46-16.85 47.04-25.3 76.66-25.3 27.6 0 52.12 7.17 73.57 21.46 23.51 16.37 35.28 38.08 35.28 65.14 0 32.72-22.49 59.04-67.47 78.96C488.21 304.37 514 339.36 514 384.33c0 32.18-12.52 57.73-37.56 76.63-21.45 16.87-48.8 25.29-82.02 25.29-31.68 0-58.75-7.92-81.24-23.77-26.04-17.87-39.08-41.63-39.08-71.26 0-30.15 14.04-54.67 42.16-73.6 7.15-5.07 18.9-11.72 35.24-19.92zm21.46 8.46c-37.29 17.37-55.94 44.43-55.94 81.24 0 23.51 7.67 42.54 22.98 57.1 15.35 14.57 34.5 21.83 57.51 21.83 21.46 0 39.58-5.73 54.42-17.24 14.82-11.48 22.2-27.45 22.2-47.9 0-31.16-19.92-56.2-59.78-75.1zm42.16-36.8c33.22-14.82 49.8-36.77 49.8-65.9 0-19.92-7-36.02-21.04-48.3-14.06-12.26-31.31-18.38-51.74-18.38-16.88 0-31.93 4.84-45.22 14.53-13.31 9.74-19.92 23.03-19.92 39.87 0 20.45 9.44 36.8 28.35 49.05 4.08 2.56 20.95 10.73 50.58 24.55z"/>
</svg>