<svg xmlns="http://www.w3.org/2000/svg" viewBox="0 0 600 600">
  <circle cx="300" cy="300" r="300" fill="#cac5c0"/>
  <path d="M222.97 111.46v301.23c0 35.77 15.06 53.63 45.22 53.63h7.67v20.7H114.9v-20.7h10.72c30.17 0 45.23-17.87 45.23-53.63V214.93c0-36.27-12.79-54.42-38.34-54.42h-16.09v-20.67h6.14c31.16 0 59.5-9.45 85.08-28.38h15.32zm244.5 214.62c-28.1 26.58-56.19 39.86-84.3 39.86-30.65 0-55.44-12.53-74.35-37.58-16.87-21.95-25.3-48.78-25.3-80.46 0-34.25 9.95-64.9 29.88-91.97 22.47-29.13 50.34-43.69 83.55-43.69 40.37 0 72.3 17.37 95.8 52.12 21.96 31.18 32.96 67.7 32.96 109.59 0 60.32-19.8 111.02-59.39 152.15-39.61 41.13-89.29 61.96-149.08 62.46v-19.92c18.4-1.03 32.97-3.1 43.69-6.14 60.83-18.41 96.31-63.88 106.54-136.42zm3.85-37.58c.49-8.14.77-15.81.77-22.98 0-29.63-5.11-56.7-15.34-81.24-13.8-32.19-33.21-48.28-58.27-48.28-21.94 0-38.07 10.98-48.27 32.96-8.7 17.87-13.04 38.83-13.04 62.84 0 26.04 4.1 48.56 12.26 67.43 10.73 25.04 27.61 37.58 50.59 37.58 27.6 0 51.36-16.1 71.3-48.31z"/>
</svg>