<svg xmlns="http://www.w3.org/2000/svg" viewBox="0 0 600 600">
  <circle cx="300" cy="300" r="300" fill="#cac5c0"/>
  <path d="m464.65 420.63-35.37 119.39H135.33v-25.53c14.28-15.9 45.57-48 93.88-96.31a2019.62 2019.62 0 0 0 86.44-92.23c14.27-15.9 25.26-29.65 32.92-41.17 17.02-24.69 25.53-49.92 25.53-75.75 0-25.22-7.8-47.47-23.45-66.67-15.64-19.22-35.82-28.85-60.54-28.85-53.22 0-94.94 36-125.12 107.88l-26.37-9.88c35.68-100.97 91.92-151.5 168.78-151.5 37.88 0 70.13 12.9 96.75 38.7 26.63 25.8 39.93 57.62 39.93 95.52 0 48.3-27.7 95.5-83.14 141.6l-57.63 47.74c-36.78 30.76-67.27 59.57-91.38 86.47-1.68 1.64-4.96 5.5-9.89 11.53h153.13c23.6 0 41.44-4.66 53.5-14.01 10.42-8.24 20.61-23.88 30.49-46.93z"/>
</svg>