<svg xmlns="http://www.w3.org/2000/svg" viewBox="0 0 600 600">
  <circle cx="300" cy="300" r="300" fill="#cac5c0"/>
  <path d="m319.46 379.6-26.82 89.68H71.89v-18.41c10.74-12.25 34.5-36.52 71.3-72.79a2126.95 2126.95 0 0 0 64.37-68.98c11.23-12.26 19.43-22.74 24.54-31.44 13.26-18.4 19.9-37.55 19.9-57.47 0-18.4-5.99-34.88-17.99-49.43-12.01-14.57-27.23-21.83-45.6-21.83-39.86 0-71.04 27.07-93.53 81.24L74.2 222.5c27.07-76.14 69.5-114.2 127.22-114.2 28.63 0 53.02 9.69 73.2 29.12 20.2 19.43 30.28 43.44 30.28 72.04 0 36.3-21.21 71.79-63.63 106.54l-42.91 36.02c-27.6 23.52-50.33 45.22-68.2 65.14-1.54 1.03-4.1 4.1-7.68 9.21h114.99c17.87 0 31.4-3.85 40.6-11.5 7.68-6.13 15.35-17.89 22.99-35.26h18.4zm-3.06-80.48c0-44.44 9.2-85.58 27.6-123.37 24.02-47 56.45-70.53 97.34-70.53 39.33 0 70.76 20.18 94.28 60.54 18.37 32.72 27.56 70.51 27.56 113.43 0 44.97-9.2 85.86-27.56 122.66-24.05 45.95-56.24 68.95-96.59 68.95-38.82 0-70.02-19.65-93.5-59.02-19.43-33.2-29.13-70.75-29.13-112.66zm52.12-20.68c0 38.33 4.08 72.57 12.26 102.7 12.24 47.03 32.7 70.52 61.31 70.52 46.49 0 69.76-48.29 69.76-144.88 0-119.57-25.3-179.35-75.87-179.35-44.98 0-67.45 46.5-67.45 139.5v11.5z"/>
</svg>