<svg xmlns="http://www.w3.org/2000/svg" viewBox="0 0 600 600">
  <path fill="#bab1ab" d="M512.1 87.82c54.3 54.3 87.9 129.3 87.9 212.16C600 465.68 465.68 600 300 600c-82.84 0-157.84-33.58-212.13-87.88"/>
  <path fill="#cac5c0" d="M87.88 512.12C33.58 457.84 0 382.82 0 299.98 0 134.31 134.32 0 300 0c82.82 0 157.8 33.56 212.1 87.82"/>
  <path d="m261.88 249.54-17.2 58.07H101.75V295.2c6.95-7.74 22.16-23.35 45.65-46.83a981.1 981.1 0 0 0 42.03-44.86c6.94-7.73 12.28-14.4 16-20.02 8.27-11.99 12.42-24.27 12.42-36.82 0-12.27-3.8-23.1-11.4-32.42-7.61-9.36-17.43-14.03-29.44-14.03-25.88 0-46.16 17.5-60.84 52.46l-12.82-4.82c17.35-49.1 44.69-73.65 82.07-73.65 18.41 0 34.09 6.27 47.03 18.8 12.96 12.56 19.42 28.03 19.42 46.46 0 23.49-13.47 46.42-40.43 68.85l-28 23.21c-17.9 14.95-32.73 28.96-44.44 42.03-.82.82-2.42 2.68-4.82 5.62h74.46c11.48 0 20.16-2.27 26.01-6.8 5.07-4.02 10.02-11.62 14.82-22.84zm275.84 146.4c0 16.2-5.9 27.26-17.68 33.15-3.45 1.72-14.25 4.07-32.43 7-11.77 1.97-17.67 6.51-17.67 13.62v29.84c0 1.25.38 5.05 1.1 11.43l1.11 11.8c0 3.67-.86 9.7-2.58 18.04a2352 2352 0 0 1-16.21 3.33c-1.97-7.38-2.95-12.41-2.95-15.12 0-1.21.3-3.07.92-5.52.61-2.45.93-4.3.93-5.54 0-1.7-1.52-6.5-4.58-14.36h-5.71c-.76 1.23-1 2.83-.77 4.78.99 4.18 1.35 7.74 1.11 10.69a861.02 861.02 0 0 1-17.3 11.79c-1.74-.5-2.34-.74-1.85-.74v-26.15c-.49-1.22-1.71-1.71-3.69-1.48h-4.42l-4.42 34.63c-3.44.24-7.61.24-12.52 0-1.72-8.1-4.8-20.13-9.2-36.1h-2.97c-2.7 8.6-4.17 13.26-4.42 14 0 .98.31 2.87.93 5.7.6 2.84.92 4.73.92 5.71 0 .73-.25 2.58-.75 5.53l-1.1 8.85c-.5.47-1.1.72-1.84.72-7.37 0-12.29-1.84-14.73-5.52-2.47-3.69-3.46-8.85-2.96-15.48l2.96-44.19c0-.74.23-1.72.73-2.95a8.4 8.4 0 0 0 .73-2.57c0-1.97-2.08-5.9-6.25-11.8-.74-.25-4.55-1.12-11.43-2.6-4.17-.96-12.4-2.69-24.67-5.13-16.95-3.19-25.43-16.82-25.43-40.89 0-35.87 14.74-65.7 44.2-89.52 1.23 6.64 3.33 15.47 6.27 26.52 2.21.5 7 1.62 14.37 3.33 1.48.48 8.96 3.19 22.47 8.1-6.87-4.17-15.84-10.9-26.88-20.25-4.18-4.9-6.28-13.14-6.28-24.68 0-2.72 4.67-5.89 14.01-9.6 8.35-3.43 14.6-5.37 18.79-5.88 13.25-1.7 23.45-2.58 30.57-2.58 30.7 0 55.5 7.87 74.41 23.6-6.13 7.12-16.7 14.71-31.67 22.83 5.89.25 14.49-2.08 25.78-7 11.3-4.9 16.08-7.37 14.37-7.37 1.96 0 5.9 3.93 11.79 11.79 4.4 5.89 7.97 11.17 10.68 15.84 7.86 14 13.14 29.11 15.84 45.3 0 5.66.13 9.71.37 12.16v2.94zm-141.1 6.65c0-10.57-4.6-20.58-13.8-30.04-9.22-9.46-19.11-14.18-29.67-14.18-9.33 0-17.55 3.96-24.67 11.87-7.13 7.91-10.68 16.7-10.68 26.34 0 8.4 4.05 13.85 12.15 16.31 5.16 1.5 12.4 2.36 21.73 2.6h20.26c16.46.22 24.68-4.08 24.68-12.9zm40.16 45.67v-11.4a397.6 397.6 0 0 1-5.15-9.97c-1.47-4.9-4.18-11.78-8.1-20.63l-4.06 43.1c0 3.46-.73 5.17-2.21 5.17-.98 0-1.72-.24-2.21-.74-1.72-26.03-2.57-37.33-2.57-33.88v-12.88c-.5-.76-1.11-1.13-1.85-1.13-8.35 8.62-12.52 22.49-12.52 41.63 0 10.56.98 17.07 2.94 19.54 1.98-.5 4.17-1.36 6.64-2.59.98-.5 3.8-.74 8.47-.74 4.65 0 10.32 1.47 16.94 4.41 2.46-.01 3.68-6.63 3.68-19.9zm83.26-51.34c0-9.87-3.69-18.71-11.05-26.5-7.37-7.79-15.84-11.68-25.4-11.68-10.33 0-19.98 4.73-28.93 14.17-8.97 9.46-13.46 19.34-13.46 29.67 0 8.6 4.19 12.88 12.53 12.88h42.36c15.97-.24 23.95-6.4 23.95-18.54z"/>
</svg>