<svg xmlns="http://www.w3.org/2000/svg" viewBox="0 0 600 600">
  <path fill="#a3c095" d="M512.1 87.82c54.3 54.3 87.9 129.3 87.9 212.16C600 465.68 465.68 600 300 600c-82.84 0-157.83-33.58-212.12-87.88"/>
  <path fill="#cac5c0" d="M87.88 512.12C33.58 457.84 0 382.82 0 300 0 134.3 134.32 0 300 0c82.82 0 157.8 33.56 212.1 87.82"/>
  <path d="m261.88 249.54-17.2 58.07H101.75V295.2c6.95-7.74 22.16-23.35 45.65-46.83a981.1 981.1 0 0 0 42.03-44.86c6.94-7.73 12.28-14.4 16-20.02 8.27-11.99 12.42-24.27 12.42-36.82 0-12.27-3.8-23.1-11.4-32.42-7.61-9.36-17.43-14.03-29.44-14.03-25.88 0-46.16 17.5-60.84 52.46l-12.82-4.82c17.35-49.1 44.69-73.65 82.07-73.65 18.41 0 34.09 6.27 47.03 18.8 12.96 12.56 19.42 28.03 19.42 46.46 0 23.49-13.47 46.42-40.43 68.85l-28 23.21c-17.9 14.95-32.73 28.96-44.44 42.03-.82.82-2.42 2.68-4.82 5.62h74.46c11.48 0 20.16-2.27 26.01-6.8 5.07-4.02 10.02-11.62 14.82-22.84zM537.1 405.7c0 4.55-1.75 8.63-5.27 12.26-3.51 3.63-7.54 5.43-12.09 5.43-7.24 0-12.58-3.4-15.97-10.2l-16-.67c-3.41 0-10.11 1.47-20.08 4.42-10.66 2.94-16.79 5.33-18.38 7.13-2.49 2.73-4.53 9.09-6.13 19.07-1.36 8.17-2.03 14.18-2.03 18.04 0 6.12.96 10.6 2.89 13.44 1.92 2.83 5.9 5.21 11.9 7.13 6 1.9 9.7 3.01 11.06 3.23.91 0 2.38-.1 4.43-.34h4.08c2.95 0 6.01.46 9.2 1.37 4.53 1.36 6.47 3.16 5.79 5.44-3.19-.45-8.74.23-16.67 2.04l9.51 4.77c0 2.72-3.85 4.07-11.57 4.07-2.05 0-4.83-.43-8.33-1.35-3.52-.92-5.85-1.37-6.98-1.37h-4.42a80.3 80.3 0 0 1-2.04 10.2c-3.87-.22-8.4-2.5-13.62-6.8-5.22-4.31-8.5-6.47-9.86-6.47-1.37 0-3.3 2.16-5.79 6.48-2.5 4.3-3.75 7.24-3.75 8.85-2.94-1.61-5.43-4.55-7.5-8.85-.9-2.97-1.92-5.92-3.05-8.88-2.26.24-6.46 5.02-12.58 14.31h-1.7c-.47-.68-2.17-5.43-5.13-14.3-7.03-2.26-13.6-3.39-19.72-3.39-2.95 0-7.5.68-13.63 2.05l-9.52-.68c1.35-1.37 5.33-3.97 11.9-7.83 7.72-4.55 13.62-6.82 17.7-6.82a15 15 0 0 1 2.73.35c1.12.24 2.04.35 2.72.35 1.57 0 4.14-.85 7.66-2.56 3.51-1.7 5.55-3.23 6.1-4.6.6-1.37.87-4.87.87-10.55 0-12.92-3.4-22.58-10.21-28.92-5.9-5.67-15.65-9.75-29.26-12.25-3.63 12.92-13.84 19.4-30.62 19.4-5.46 0-10.9-3.3-16.34-9.88-5.43-6.58-8.17-12.59-8.17-18.03 0-8.4 3.52-15.31 10.55-20.76-5.66-5.89-8.5-11.9-8.5-18.04a23 23 0 0 1 5.27-14.97c3.52-4.3 8.12-6.8 13.78-7.5-.45-7.24 1.92-12.24 7.14-14.96-2.5-2.49-3.73-6.9-3.73-13.27 0-7.47 2.49-13.72 7.48-18.71 4.98-4.98 11.24-7.5 18.7-7.5 8.18 0 14.88 2.86 20.09 8.52 6.59-22.45 20.75-33.68 42.53-33.68 11.34 0 21.33 4.54 29.95 13.62 3.18 3.39 4.76 5.2 4.76 5.43-2.72 0-1.35-.52 4.08-1.52 5.45-1.03 9.41-1.55 11.91-1.55 8.85 0 16.68 3.3 23.5 9.88 5.89 5.9 9.98 13.37 12.24 22.45 1.59.24 4.08.9 7.48 2.05 5 2.5 7.5 6.8 7.5 12.93 0 1.13-.92 3.3-2.73 6.47 14.51 8.17 21.77 19.5 21.77 34.02 0 4.1-1.59 9.76-4.75 17.02 5.91 3.41 8.86 8.4 8.86 14.99zm-140.19 14.98v-4.42c0-5.21-2.55-9.98-7.65-14.3-5.1-4.31-10.26-6.45-15.48-6.45a36.75 36.75 0 0 0-17.7 4.4c12.02-.66 25.63 6.25 40.83 20.77zm-6.12-42.18a86.9 86.9 0 0 1-8.85-11.91c-9.53 2.48-14.29 5.33-14.29 8.5 2.72-.23 6.7.27 11.9 1.53 5.21 1.25 8.97 1.88 11.24 1.88zm20.77-10.57v-14.97c-5.46-.9-8.76-1.36-9.88-1.36v5.11zm44.23-9.52a615.5 615.5 0 0 1-15.32-6.8v29.26c10.66-6.14 15.76-13.61 15.32-22.46zm18.7 40.16-7.48-9.18c-4.52 3.18-9.13 6.4-13.79 9.7a61.92 61.92 0 0 0-12.06 11.06 115.4 115.4 0 0 1 33.33-11.58z"/>
</svg>