<svg xmlns="http://www.w3.org/2000/svg" viewBox="0 0 600 600">
  <path fill="#e49977" d="M512.1 87.82c54.3 54.3 87.9 129.3 87.9 212.16C600 465.68 465.68 600 300 600c-82.84 0-157.83-33.58-212.12-87.88"/>
  <path fill="#cac5c0" d="M87.88 512.12C33.58 457.84 0 382.82 0 299.98 0 134.31 134.32 0 300 0c82.81 0 157.8 33.56 212.1 87.82"/>
  <path d="M529.8 446.63c-10.3 24.6-30.78 36.87-61.44 36.87-5.62 0-11.71.7-18.26 2.13-9.84 2.1-14.75 5.02-14.75 8.77 0 1.16.81 2.51 2.46 4.05 1.63 1.52 3.05 2.28 4.22 2.28-5.87 0-1.89.17 11.92.52 13.82.35 22.48.54 26 .54-20.37 11.92-54.42 17.41-102.18 16.5-15.68-.24-29.14-7.14-40.37-20.73-11.01-12.88-16.5-27.25-16.5-43.18 0-16.85 5.67-31.18 17.03-43.01 11.34-11.82 25.45-17.73 42.3-17.73 3.74 0 8.72.82 14.92 2.46 6.2 1.64 10.36 2.46 12.46 2.46 8.66 0 19.43-3.58 32.31-10.72 12.88-7.13 18.96-10.7 18.26-10.7-2.35 24.59-10.54 41.08-24.58 49.51-10.07 5.86-15.1 11.58-15.1 17.2 0 3.5 2.1 6.32 6.31 8.42a23.93 23.93 0 0 0 10.9 2.46c6.08 0 12.04-3.74 17.9-11.24 5.84-7.49 8.41-14.27 7.71-20.37-.7-7.02-.22-15.44 1.41-25.28.46-2.81 2.17-6.26 5.09-10.36 2.93-4.1 5.57-6.61 7.9-7.55 0 2.1-.76 5.62-2.28 10.53-1.52 4.91-2.28 8.56-2.28 10.88 0 5.15 1.4 9.12 4.22 11.94 4.2-1.64 7.94-6.91 11.23-15.8a64.17 64.17 0 0 0 4.92-19.66c-9.84-.47-19.26-4.91-28.26-13.35-9.01-8.43-13.52-17.56-13.52-27.37 0-1.64.23-3.29.7-4.92 1.4 2.1 3.5 5.38 6.32 9.83 3.98 5.86 7.02 8.77 9.13 8.77 2.8 0 4.21-2.9 4.21-8.77 0-7.49-1.99-14.28-5.97-20.37-4.46-7.25-10.2-10.88-17.2-10.88-3.29 0-8.2 1.75-14.75 5.26-6.56 3.5-12.53 5.27-17.9 5.27-1.63 0-8.9-2.12-21.77-6.33 22.7-3.73 34.06-7.13 34.06-10.17 0-7.95-15.57-13.35-46.7-16.15-3.05-.22-8.66-.7-16.86-1.4.93-1.16 7.61-2.45 20.02-3.88 10.53-1.15 17.9-1.74 22.11-1.74 55.71 0 91.05 27.05 106.04 81.13 2.58-2.14 3.87-5.72 3.87-10.68 0-6.42-1.87-14.49-5.62-24.21a844.8 844.8 0 0 0-6.68-17.09c19.19 24.45 28.8 47.63 28.8 69.5 0 11.53-2.7 22-8.09 31.4-3.5 6.34-10.07 14.44-19.66 24.34-9.6 9.88-16.14 17.52-19.66 22.92 12.88-3.5 21.3-6.2 25.29-8.08 8.88-3.97 16.96-9.95 24.22-17.9 0 3.04-1.3 7.62-3.86 13.68zM376.72 308.66c0 4.2-2.35 6.88-7.02 8.07l-9.13 1.4c-3.28 1.63-8.08 8.08-14.39 19.31-.71-3.5-1.76-8.4-3.17-14.74-2.1.23-5.6 2.1-10.53 5.62-2.1 1.63-5.5 4.1-10.19 7.38 1.41-8.43 6.1-16.96 14.05-25.63 8.43-9.6 16.62-14.39 24.58-14.39 10.53-.02 15.8 4.32 15.8 12.98zm61.09 32.3c0 3.98-2.17 7.31-6.5 10-4.33 2.7-8.6 4.05-12.81 4.05-5.63 0-10.66-3.17-15.1-9.48-5.39-7.73-10.89-12.75-16.5-15.11a5.8 5.8 0 0 1 4.22-1.76c2.1 0 5.67 1.64 10.7 4.9 5.02 3.3 8.25 4.92 9.66 4.92 1.17 0 3.1-1.62 5.78-4.91 2.7-3.27 5.68-4.91 8.96-4.91 7.73 0 11.59 4.12 11.59 12.3zm-175.93-91.41-17.2 58.06H101.75V295.2c6.95-7.74 22.16-23.34 45.65-46.83a974.89 974.89 0 0 0 42.03-44.86c6.94-7.72 12.28-14.4 16-20.01 8.27-12 12.42-24.27 12.42-36.83 0-12.27-3.8-23.08-11.4-32.42-7.61-9.35-17.43-14.03-29.44-14.03-25.88 0-46.16 17.5-60.84 52.46l-12.82-4.8c17.35-49.12 44.69-73.67 82.07-73.67 18.41 0 34.09 6.27 47.03 18.81 12.96 12.55 19.42 28.03 19.42 46.45 0 23.49-13.47 46.43-40.43 68.86l-28 23.2c-17.9 14.95-32.73 28.96-44.44 42.04-.82.81-2.42 2.68-4.82 5.62h74.46c11.48 0 20.16-2.26 26.01-6.81 5.07-4 10.02-11.62 14.82-22.82h12.4z"/>
</svg>