<svg xmlns="http://www.w3.org/2000/svg" viewBox="0 0 600 600">
  <path fill="#c1d7e9" d="M512.1 87.82c54.3 54.3 87.9 129.3 87.9 212.16C600 465.68 465.68 600 300 600c-82.84 0-157.84-33.58-212.13-87.88"/>
  <path fill="#cac5c0" d="M87.88 512.12C33.58 457.84 0 382.82 0 299.98 0 134.31 134.32 0 300 0c82.82 0 157.8 33.56 212.1 87.82"/>
  <path d="M460.33 502.05c-16.15 16.43-36.05 24.65-59.68 24.65-26.53 0-47.57-9.09-63.14-27.24-14.72-17.3-22.06-39.35-22.06-66.17 0-28.83 12.54-61.69 37.63-98.6a372.49 372.49 0 0 1 72.22-79.6c-4.04 18.46-6.06 31.58-6.06 39.37 0 17.89 5.62 35.32 16.86 52.33 13.85 20.2 24.37 35.19 31.58 44.98 11.24 17 16.86 33.6 16.86 49.73 0 23.94-8.06 44.13-24.2 60.55zm-.43-92.33c-4.33-9.65-9.37-16.08-15.14-19.25.87 1.73 1.3 4.19 1.3 7.36 0 6.06-1.73 14.72-5.19 25.94l-5.62 17.31c0 10.08 5.03 15.13 15.13 15.13 10.66 0 16-7.06 16-21.19 0-7.2-2.15-15.65-6.48-25.3zM261.88 249.55l-17.2 58.06H101.75V295.2c6.95-7.74 22.16-23.34 45.65-46.83a974.87 974.87 0 0 0 42.03-44.86c6.94-7.72 12.28-14.4 16-20.01 8.27-12 12.42-24.27 12.42-36.83 0-12.27-3.8-23.08-11.4-32.42-7.61-9.35-17.43-14.03-29.44-14.03-25.88 0-46.16 17.5-60.84 52.46l-12.82-4.8c17.35-49.12 44.69-73.67 82.07-73.67 18.41 0 34.09 6.27 47.03 18.81 12.96 12.55 19.42 28.03 19.42 46.45 0 23.49-13.47 46.43-40.43 68.86l-28 23.2c-17.9 14.95-32.73 28.96-44.44 42.04-.82.81-2.42 2.68-4.82 5.62h74.46c11.48 0 20.16-2.26 26.01-6.81 5.07-4 10.02-11.62 14.82-22.82h12.4z"/>
</svg>