<svg xmlns="http://www.w3.org/2000/svg" viewBox="0 0 600 600">
  <path fill="#f8f6d8" d="M512.1 87.82c54.3 54.3 87.9 129.3 87.9 212.16C600 465.68 465.68 600 300 600c-82.84 0-157.84-33.58-212.13-87.88"/>
  <path fill="#cac5c0" d="M87.88 512.12C33.58 457.84 0 382.82 0 299.98 0 134.31 134.32 0 300 0c82.82 0 157.8 33.56 212.1 87.82"/>
  <path d="m261.88 249.54-17.2 58.07H101.75V295.2c6.95-7.74 22.16-23.35 45.65-46.83a981.1 981.1 0 0 0 42.03-44.86c6.94-7.73 12.28-14.4 16-20.02 8.27-11.99 12.42-24.27 12.42-36.82 0-12.27-3.8-23.1-11.4-32.42-7.61-9.36-17.43-14.03-29.44-14.03-25.88 0-46.16 17.5-60.84 52.46l-12.82-4.82c17.35-49.1 44.69-73.65 82.07-73.65 18.41 0 34.09 6.27 47.03 18.8 12.96 12.56 19.42 28.03 19.42 46.46 0 23.49-13.47 46.42-40.43 68.85l-28 23.21c-17.9 14.95-32.73 28.96-44.44 42.03a96.7 96.7 0 0 0-4.82 5.62h74.46c11.48 0 20.16-2.27 26.01-6.8 5.07-4.02 10.02-11.62 14.82-22.84zM528 438.66c-14.62-13.58-24.32-20.94-29.08-22.09-3.46-.83-6.81 1.19-10.03 6.04-3.23 4.85-7.76 6.55-13.62 5.15-2.37-.57-7.05-2.61-14-6.1-5.62 5.3-8.64 8.82-9.06 10.54-.57 2.39.53 5.63 3.3 9.73 2.76 4.1 5.37 6.43 7.8 7.02 1.55.38 3.74.55 6.55.54 2.8 0 4.66.1 5.56.3 2.66.63 2.81 5.83.46 15.6-2.22 9.3-7.8 23.1-16.75 41.34-.35-23.45-3.66-35.93-9.94-37.43-.87-.21-2.81.02-5.83.67-3.03.64-5.19.82-6.48.5-6.28-1.5-10.55-8.6-12.78-21.27-10.34-.87-16.54 3.04-18.62 11.7-1.04 4.35.14 8.3 3.53 11.85 3.39 3.55 4.95 5.87 4.7 6.96-1.4 5.87-12.12 12.8-32.13 20.84a1372.3 1372.3 0 0 0-22.13 9.13c3.95-3.17 8.22-7.54 12.76-13.1 5.18-6.33 8.23-11.43 9.17-15.35.52-2.15-1.25-5.8-5.3-10.88-4.05-5.1-5.55-9.8-4.51-14.13.87-3.68 3.26-7.91 7.16-12.72-2.04-3.92-5-6.36-8.92-7.29-8.66-2.08-13.67-.3-15.02 5.35l-2.1 8.77c-1.5 7.2-7.77 9.48-18.82 6.84-8.45-2.02-22.18-7.37-41.18-16.04 23.89-.23 36.7-4.04 38.46-11.4-.19.87 0-1.85.58-8.12.74-6.93 6.96-11.87 18.65-14.8.43-10.42-3.56-16.66-12.02-18.67-1.3-.32-4.23 1.38-8.77 5.12-4.57 3.71-8.37 5.22-11.4 4.48-5.2-1.23-10.56-8.47-16.1-21.72a1516.9 1516.9 0 0 0-11.9-29.3c4.37 3.79 8.72 7.59 13.1 11.37 5.77 4.6 10.61 7.35 14.5 8.3 3.04.71 6.65-1.23 10.85-5.85 4.2-4.61 8.67-6.34 13.44-5.2.67.16 4.68 2.5 12.08 7.02 5.62-5.3 8.8-9.46 9.52-12.5.61-2.6-.24-5.96-2.58-10.07-2.34-4.12-4.81-6.48-7.42-7.11a21.03 21.03 0 0 0-5.26-.23c-2.43.11-4.19.03-5.27-.23-3.9-.93-4.69-6.27-2.36-16.03.62-2.6 6.67-16.85 18.14-42.73-1 3.18-1.04 9.6-.12 19.21 1.08 11.72 4.12 18.16 9.1 19.37.87.2 2.75-.03 5.68-.7 2.9-.69 5.11-.85 6.62-.48 4.98 1.18 8.42 5 10.33 11.4l2.78 9.93c4.54 1.1 8.72.38 12.53-2.14a17.02 17.02 0 0 0 7.37-10.61c1.13-4.77 0-8.88-3.41-12.33-3.42-3.46-4.98-5.84-4.65-7.13 1.08-4.56 10.07-10.53 26.97-17.94 13.55-5.91 22.25-9.22 26.1-9.9-12.33 10.34-19.2 18.41-20.6 24.27-.73 3.05.34 6.73 3.2 11.1 3.56 5.2 5.46 8.75 5.7 10.62.96 5.52-.88 12.28-5.56 20.34 4.87 5.52 8.82 8.63 11.86 9.37 6.27 1.5 10.2-1 11.75-7.5.16-.65.38-2.78.67-6.38.28-3.6.6-5.59.91-5.97 1.6-2.83 7.92-2.92 18.97-.27 6.94 1.66 20.88 7.05 41.83 16.2-5.08.15-12.7.38-22.85.72-9.3.51-14.33 2.4-15.12 5.65-.35 1.52-.44 4.25-.24 8.18.2 3.94.1 6.8-.31 8.53-.72 3.04-3.35 5.38-7.87 7.05l-12.94 5.15c1.48 5.4 2.52 8.63 3.2 9.7 1.54 3.12 4.14 5.12 7.83 6 2.6.63 5.53-1.07 8.8-5.12 3.24-4.03 7.26-5.48 12.03-4.33 5.85 1.4 11.16 8.39 15.94 20.99 2.67 7.06 6.86 17.8 12.58 32.22zm-67.65-36.11c3.31-13.88 1.1-27.12-6.65-39.74-7.75-12.62-18.56-20.6-32.42-23.91-14.09-3.37-27.45-1.23-40.03 6.42-12.6 7.62-20.69 18.46-24.27 32.5-3.54 13.81-1.26 27.02 6.84 39.62 8.1 12.58 19.08 20.55 32.95 23.86 14.73 3.53 28.2 1.65 40.35-5.64 12.17-7.29 19.91-18.33 23.23-33.11zm-4.88-1.18c-3.16 13.22-10.22 23.11-21.18 29.64-10.96 6.54-23.06 8.24-36.27 5.07-12.78-3.06-22.67-10.12-29.64-21.18-6.98-11.07-8.93-22.98-5.88-35.77 3.02-12.57 10.2-22.25 21.56-29.05 11.38-6.78 23.33-8.67 35.9-5.66 12.56 3 22.37 10.16 29.39 21.46 7.03 11.32 9.07 23.15 6.12 35.5z"/>
</svg>