<svg xmlns="http://www.w3.org/2000/svg" viewBox="0 0 600 600">
  <circle cx="300" cy="300" r="300" fill="#cac5c0"/>
  <path d="m237.37 315.38-12.11-22.62 8.02-4.84c31.04-18.87 59.42-37.98 85.13-57.38 25.7-19.4 38.57-41.5 38.57-66.29 0-16.67-6.18-30.67-18.51-41.99-12.37-11.35-26.84-17-43.47-17-38.63 0-79.4 24-122.35 71.94l-20.12-15.35c44.71-67.9 99.4-101.84 164.04-101.84 28.54 0 52.77 7 72.73 21.01 22.63 15.65 33.93 36.92 33.93 63.86 0 19.37-8.09 38.24-24.23 56.55-9.17 10.79-25.36 24.8-48.5 42.03l-9.7 7.27c4.31-.53 9.44-.8 15.37-.8 29.62 0 53.98 11.32 73.12 33.94 19.13 22.63 28.7 49.02 28.7 79.18 0 51.19-21.57 94-64.64 128.5C353.47 523.86 307.4 540 255.15 540c-47.94 0-85.65-10.5-113.14-31.5l14.57-20.22c32.32 15.64 61.68 23.44 88.09 23.44 38.24 0 72.3-12.66 102.19-37.98 29.93-25.32 44.85-56.82 44.85-94.53 0-24.8-7.53-45.93-22.62-63.46-15.1-17.49-34.76-26.24-59-26.24-22.1 0-46.33 8.62-72.72 25.86z"/>
</svg>