<svg xmlns="http://www.w3.org/2000/svg" viewBox="0 0 600 600">
  <circle cx="300" cy="300" r="300" fill="#cac5c0"/>
  <path d="M209.74 68.12H383.4c22.52 0 35.93-2.7 40.22-8.1h24.93l-14.53 65.54H222.13l-20.45 94.74c30.76-12.42 58-18.63 81.75-18.63 46.37 0 85.5 15.52 117.35 46.55 31.83 31.03 47.77 69.73 47.77 116.14 0 53.98-20.8 97.42-62.37 130.33-38.3 30.24-84.97 45.32-140.02 45.32-32.37 0-63.96-4.85-94.71-14.55l9.7-24.28c25.92 7.01 48.84 10.5 68.81 10.5 39.93 0 74.86-13.07 104.84-39.26 29.94-26.15 44.93-58.95 44.93-98.35 0-33.99-11.07-61.92-33.2-83.75-22.13-21.88-50.19-32.81-84.2-32.81-31.28 0-60.42 10.8-87.4 32.37l-16.21-3.22z"/>
</svg>