<svg xmlns="http://www.w3.org/2000/svg" viewBox="0 0 600 600">
  <circle cx="300" cy="300" r="300" fill="#cac5c0"/>
  <path d="M219.48 268.06c35.6-33.46 71.46-50.18 107.63-50.18 39.39 0 70.97 15.63 94.73 46.92C443.93 293.42 455 327.93 455 368.42c0 44.26-12.95 83.1-38.85 116.55-28.6 36.69-64.22 55.05-106.84 55.05-51.28 0-92.29-22.14-123.03-66.38-27.54-38.86-41.3-85-41.3-138.43 0-56.64 15.65-108.84 46.95-156.6 31.28-47.75 73.1-81.61 125.44-101.57 29.68-11.33 61-17.03 93.9-17.03v25.1c-70.15 3.79-122.49 31.85-157.05 84.19-17.75 27-29.37 59.9-34.75 98.76Zm-4.87 48.55c-.52 9.71-.8 19.43-.8 29.15 0 37.21 6.47 71.76 19.42 103.61 16.7 41.53 41.3 62.31 73.67 62.31 28.04 0 49.08-14.29 63.12-42.9 10.78-22.11 16.18-48.82 16.18-80.14 0-33.42-5.14-62.05-15.38-85.79-14.04-32.38-35.61-48.55-64.75-48.55-35.6 0-66.1 20.78-91.46 62.31z"/>
</svg>