<svg xmlns="http://www.w3.org/2000/svg" viewBox="0 0 600 600">
  <circle cx="300" cy="300" r="300" fill="#cac5c0"/>
  <path d="m245.79 296.79-10.48-7.27c-30.71-21-50.95-37.98-60.64-50.93-12.4-16.15-18.57-34.98-18.57-56.56 0-36.63 15.34-66.52 46.06-89.69 28.55-21.54 61.69-32.33 99.41-32.33 35.53 0 67.08 9.44 94.54 28.28 31.22 21.02 46.88 48.76 46.88 83.26 0 42.02-29.4 75.96-88.1 101.8 66.79 32.33 100.2 77.3 100.2 134.95 0 41.48-15.88 74.33-47.7 98.6-28.51 22.1-64.37 33.11-107.45 33.11-40.4 0-75.15-10.22-104.26-30.71-33.41-23.14-50.09-53.86-50.09-92.1 0-38.23 17.78-69.78 53.33-94.56 9.7-6.45 25.34-15.06 46.87-25.85zm27.43 11.47c-48.48 22.06-72.66 56.8-72.66 104.17 0 30.68 9.8 55.3 29.5 73.88 19.65 18.58 44.84 27.86 75.56 27.86 27.44 0 50.76-7.4 69.87-22.17 19.12-14.78 28.69-35.35 28.69-61.68 0-39.76-26.2-72-78.59-96.73zm54.19-47.84c42.53-18.84 63.84-47.12 63.84-84.83 0-25.88-9.03-46.6-27.06-62.25-18.07-15.62-40.29-23.44-66.67-23.44-22.1 0-41.22 5.95-57.38 17.79-17.8 12.92-26.66 30.18-26.66 51.72 0 26.4 12.38 47.69 37.17 63.86 4.83 3.22 26.38 13.71 64.65 31.5z"/>
</svg>