<svg xmlns="http://www.w3.org/2000/svg" viewBox="0 0 600 600">
  <circle cx="300" cy="300" r="300" fill="#cac5c0"/>
  <path d="M380.41 333.16c-35.53 33.4-71.39 50.11-107.46 50.11-39.33 0-70.85-15.62-94.55-46.88-22.1-28.55-33.13-63.04-33.13-103.45 0-43.63 12.9-82.66 38.76-117.15C212.06 78.59 247.36 60 289.92 60c51.73 0 92.93 22.37 123.63 67.09 27.5 39.32 41.2 85.91 41.2 139.81 0 76.48-25.34 140.99-75.93 193.54-50.64 52.51-113.96 79.05-189.92 79.57v-25.05c23.16-1.06 41.72-3.76 55.79-8.07 77.53-23.7 122.81-81.6 135.72-173.74zm4.88-48.5c.52-10.23.77-19.93.77-29.07 0-37.71-6.44-72.2-19.38-103.44-17.25-41.5-42-62.25-74.31-62.25-28.06 0-48.75 14.31-62.25 42.85-10.78 22.1-16.15 48.76-16.15 80 0 33.4 5.11 61.95 15.36 85.65 13.99 32.33 35.55 48.5 64.66 48.5 35.52 0 65.94-20.75 91.3-62.24z"/>
</svg>