<svg xmlns="http://www.w3.org/2000/svg" viewBox="0 0 600 600">
  <circle cx="300" cy="300" r="300" fill="#bab1ab"/>
  <path d="M544.17 291.73c0 33.1-12.05 55.68-36.12 67.72-7.03 3.51-29.1 8.27-66.22 14.3-24.07 4.02-36.11 13.3-36.11 27.83v60.95c0 2.53.75 10.29 2.25 23.33l2.26 24.09c0 7.53-1.76 19.83-5.27 36.87-9.53 2-20.57 4.26-33.11 6.8-4.02-15.07-6.02-25.35-6.02-30.88 0-2.5.63-6.27 1.87-11.3 1.25-5 1.9-8.76 1.9-11.3 0-3.47-3.12-13.27-9.35-29.31h-11.67c-1.55 2.5-2.07 5.76-1.56 9.77 2 8.53 2.75 15.8 2.26 21.82a1695.05 1695.05 0 0 1-35.37 24.08c-3.52-1-4.76-1.5-3.78-1.5v-53.42c-.98-2.5-3.5-3.49-7.52-3.02h-9.02l-9.03 70.73c-7.04.5-15.55.5-25.58 0-3.53-16.55-9.79-41.12-18.81-73.74h-6.03c-5.53 17.58-8.53 27.12-9.03 28.62 0 2 .62 5.88 1.88 11.65 1.24 5.77 1.88 9.65 1.88 11.66 0 1.5-.5 5.26-1.5 11.28l-2.26 18.06a5.13 5.13 0 0 1-3.76 1.5c-15.05 0-25.1-3.76-30.1-11.27-5.02-7.54-7.03-18.07-6.02-31.63l6.02-90.28c0-1.51.5-3.52 1.5-6.02.98-2.51 1.5-4.27 1.5-5.27 0-4.02-4.27-12.04-12.79-24.08-1.48-.5-9.29-2.26-23.32-5.27-8.54-2-25.35-5.51-50.41-10.54-34.63-6.5-51.92-34.35-51.92-83.52 0-73.24 30.1-134.19 90.3-182.85 2.49 13.55 6.76 31.6 12.78 54.17a4999.7 4999.7 0 0 1 29.34 6.78c3.03 1 18.32 6.53 45.91 16.56-14.06-8.53-32.35-22.32-54.93-41.39-8.53-10.03-12.8-26.83-12.8-50.4 0-5.52 9.54-12.05 28.6-19.58 17.05-7.02 29.86-11.02 38.38-12.04 27.09-3.5 47.9-5.27 62.46-5.27 62.7 0 113.35 16.06 151.97 48.17-12.53 14.56-34.1 30.08-64.7 46.64 12.05.5 29.6-4.24 52.68-14.3 23.06-10.02 32.85-15.05 29.34-15.05 4.01 0 12.05 8.04 24.09 24.09 9.02 12.03 16.29 22.84 21.82 32.34a283.1 283.1 0 0 1 32.36 92.56c0 11.55.24 19.83.75 24.83v6.03zm-288.19 13.54c0-21.56-9.4-42-28.21-61.33-18.83-19.32-39.02-28.96-60.58-28.96-19.07 0-35.86 8.09-50.41 24.23-14.56 16.16-21.82 34.1-21.82 53.78 0 17.16 8.27 28.28 24.83 33.32 10.54 3.04 25.31 4.8 44.39 5.3h41.39c33.58.5 50.41-8.28 50.41-26.34zM338 398.6v-23.33a735.7 735.7 0 0 1-10.52-20.32c-3.01-10.05-8.53-24.09-16.56-42.15l-8.29 88.04c0 7.03-1.5 10.54-4.51 10.54-2 0-3.5-.5-4.51-1.5-3.52-53.17-5.28-76.25-5.28-69.24v-26.32c-1-1.52-2.25-2.27-3.75-2.27-17.06 17.58-25.58 45.9-25.58 85.03 0 21.57 1.98 34.86 6.01 39.89 4.02-1 8.53-2.76 13.55-5.27 2-1 7.77-1.5 17.32-1.5 9.5 0 21.06 3 34.6 9.02 5.01 0 7.52-13.54 7.52-40.62zm170.07-104.85c0-20.2-7.53-38.25-22.58-54.15-15.06-15.89-32.37-23.85-51.9-23.85-21.08 0-40.78 9.64-59.08 28.96-18.32 19.31-27.47 39.5-27.47 60.57 0 17.57 8.52 26.34 25.58 26.34h86.53c32.6-.5 48.92-13.12 48.92-37.87z"/>
</svg>