<svg xmlns="http://www.w3.org/2000/svg" viewBox="0 0 600 600">
  <path fill="#a3c095" d="M512.1 87.82c54.31 54.3 87.9 129.3 87.9 212.16C600 465.68 465.68 600 300 600c-82.84 0-157.83-33.58-212.12-87.88"/>
  <path fill="#bab1ab" d="M87.88 512.12C33.58 457.84 0 382.82 0 300 0 134.3 134.32 0 300 0c82.81 0 157.8 33.56 212.1 87.82"/>
  <path d="M319.54 168.66c0 16.2-5.89 27.26-17.68 33.15-3.44 1.72-14.24 4.07-32.42 7-11.78 1.97-17.67 6.53-17.67 13.62v29.84c0 1.26.37 5.05 1.1 11.44l1.11 11.79c0 3.68-.86 9.7-2.59 18.05-4.65.97-10.06 2.08-16.2 3.33-1.96-7.38-2.94-12.42-2.94-15.12 0-1.22.3-3.08.91-5.53.61-2.45.92-4.3.92-5.53 0-1.7-1.52-6.5-4.57-14.35h-5.72c-.75 1.21-1 2.81-.76 4.77.98 4.17 1.35 7.73 1.11 10.68a846.32 846.32 0 0 1-17.31 11.8c-1.73-.5-2.34-.75-1.85-.75V256.7c-.5-1.21-1.72-1.7-3.69-1.47h-4.42l-4.41 34.63c-3.44.24-7.62.24-12.52 0-1.72-8.1-4.8-20.13-9.21-36.1h-2.95c-2.7 8.6-4.17 13.27-4.42 14 0 .98.3 2.88.93 5.71a34 34 0 0 1 .9 5.7c0 .73-.24 2.59-.74 5.53l-1.1 8.85c-.5.48-1.1.72-1.84.72-7.37 0-12.28-1.83-14.73-5.51-2.46-3.69-3.45-8.86-2.95-15.48l2.95-44.2c0-.72.23-1.7.73-2.95a8.4 8.4 0 0 0 .74-2.57c0-1.97-2.09-5.9-6.26-11.8-.74-.23-4.55-1.1-11.42-2.58a915.1 915.1 0 0 0-24.68-5.15c-16.94-3.18-25.42-16.82-25.42-40.89 0-35.86 14.74-65.69 44.2-89.5 1.23 6.62 3.32 15.45 6.27 26.5l14.37 3.33c1.49.49 8.97 3.2 22.47 8.11-6.87-4.17-15.84-10.92-26.88-20.26-4.18-4.9-6.27-13.13-6.27-24.68 0-2.7 4.67-5.88 14-9.6 8.35-3.42 14.61-5.37 18.8-5.87 13.25-1.71 23.44-2.59 30.57-2.59 30.69 0 55.5 7.87 74.4 23.6-6.13 7.12-16.7 14.71-31.67 22.84 5.89.24 14.49-2.1 25.79-7.01 11.3-4.9 16.08-7.36 14.36-7.36 1.97 0 5.9 3.92 11.8 11.77 4.4 5.9 7.97 11.2 10.67 15.85 7.86 14 13.14 29.11 15.86 45.32 0 5.65.11 9.7.36 12.14v2.94h-.03zm-141.1 6.65c0-10.57-4.6-20.57-13.8-30.04-9.22-9.45-19.11-14.17-29.66-14.17-9.33 0-17.55 3.96-24.68 11.86-7.12 7.92-10.68 16.7-10.68 26.34 0 8.4 4.05 13.86 12.16 16.32 5.16 1.49 12.39 2.35 21.73 2.6h20.25c16.45.22 24.69-4.09 24.69-12.91zm40.16 45.67v-11.4c-1.71-3.2-3.43-6.53-5.14-9.96-1.48-4.9-4.19-11.78-8.12-20.64l-4.05 43.12c0 3.44-.73 5.15-2.21 5.15-.98 0-1.72-.24-2.21-.73-1.72-26.03-2.58-37.34-2.58-33.88v-12.89c-.5-.76-1.1-1.13-1.85-1.13-8.34 8.62-12.51 22.49-12.51 41.63 0 10.57.97 17.07 2.93 19.54 1.97-.5 4.17-1.35 6.64-2.58.98-.5 3.8-.74 8.47-.74 4.65 0 10.31 1.47 16.94 4.4 2.46 0 3.7-6.62 3.7-19.89zm83.26-51.33c0-9.88-3.68-18.71-11.06-26.51-7.37-7.78-15.84-11.67-25.4-11.67-10.32 0-19.97 4.72-28.92 14.18-8.97 9.44-13.45 19.33-13.45 29.65 0 8.6 4.18 12.89 12.52 12.89h42.36c15.96-.24 23.95-6.41 23.95-18.54zM537.11 405.7c0 4.55-1.75 8.63-5.27 12.26-3.52 3.63-7.55 5.43-12.1 5.43-7.24 0-12.58-3.4-15.97-10.2l-16-.67c-3.4 0-10.11 1.47-20.08 4.42-10.66 2.94-16.78 5.33-18.38 7.13-2.48 2.73-4.53 9.09-6.12 19.07-1.37 8.16-2.03 14.18-2.03 18.04 0 6.12.96 10.6 2.88 13.44 1.92 2.83 5.9 5.21 11.9 7.13 6 1.9 9.7 3.01 11.06 3.23.91 0 2.38-.1 4.43-.34h4.08c2.95 0 6 .46 9.2 1.36 4.52 1.37 6.46 3.17 5.78 5.45-3.18-.45-8.73.23-16.66 2.04l9.51 4.77c0 2.72-3.86 4.07-11.57 4.07-2.05 0-4.83-.43-8.34-1.35-3.52-.92-5.85-1.37-6.97-1.37h-4.43c-.22 2.27-.9 5.66-2.04 10.2-3.87-.22-8.39-2.5-13.62-6.8-5.22-4.32-8.5-6.47-9.85-6.47-1.37 0-3.31 2.15-5.8 6.48-2.5 4.3-3.74 7.24-3.74 8.85-2.94-1.61-5.43-4.55-7.5-8.85-.9-2.97-1.92-5.92-3.05-8.88-2.27.24-6.46 5.02-12.59 14.31h-1.7c-.47-.68-2.16-5.43-5.12-14.3-7.03-2.26-13.6-3.39-19.72-3.39-2.95 0-7.5.67-13.62 2.05l-9.53-.68c1.36-1.37 5.33-3.97 11.9-7.83 7.71-4.55 13.62-6.82 17.7-6.82.67 0 1.59.12 2.73.35 1.12.24 2.04.35 2.72.35 1.57 0 4.13-.85 7.65-2.56 3.52-1.7 5.56-3.24 6.11-4.6.6-1.37.87-4.88.87-10.55 0-12.92-3.4-22.58-10.21-28.92-5.9-5.67-15.65-9.75-29.27-12.25-3.62 12.92-13.84 19.4-30.61 19.4-5.46 0-10.9-3.3-16.34-9.88-5.44-6.58-8.17-12.59-8.17-18.04 0-8.4 3.52-15.3 10.55-20.75-5.66-5.89-8.5-11.9-8.5-18.04a23 23 0 0 1 5.27-14.97c3.51-4.3 8.11-6.8 13.78-7.5-.45-7.24 1.92-12.24 7.14-14.96-2.5-2.49-3.73-6.9-3.73-13.27 0-7.47 2.48-13.72 7.48-18.71 4.98-4.98 11.22-7.5 18.7-7.5 8.18 0 14.87 2.86 20.09 8.52 6.59-22.46 20.75-33.68 42.53-33.68 11.34 0 21.33 4.53 29.94 13.62 3.18 3.39 4.76 5.2 4.76 5.43-2.71 0-1.35-.52 4.09-1.53 5.45-1.02 9.4-1.54 11.91-1.54 8.85 0 16.67 3.3 23.5 9.88 5.88 5.9 9.97 13.37 12.24 22.45 1.58.24 4.08.9 7.47 2.05 5 2.5 7.5 6.8 7.5 12.93 0 1.13-.91 3.3-2.73 6.47 14.52 8.17 21.78 19.5 21.78 34.02 0 4.09-1.6 9.76-4.75 17.02 5.91 3.41 8.86 8.4 8.86 14.99zm-140.2 14.98v-4.42c0-5.21-2.55-9.98-7.65-14.3-5.11-4.31-10.26-6.45-15.48-6.45a36.75 36.75 0 0 0-17.7 4.4c12.03-.66 25.63 6.25 40.83 20.77zm-6.12-42.18a87.39 87.39 0 0 1-8.85-11.91c-9.53 2.48-14.3 5.33-14.3 8.5 2.72-.23 6.7.27 11.9 1.53 5.23 1.25 8.98 1.88 11.25 1.88zm20.77-10.57v-14.97c-5.46-.9-8.76-1.36-9.88-1.36v5.11zm44.23-9.52c-2.72-1.13-7.83-3.4-15.32-6.8v29.26c10.66-6.14 15.76-13.61 15.32-22.46zm18.7 40.16-7.48-9.18c-4.53 3.18-9.13 6.4-13.79 9.7a62.1 62.1 0 0 0-12.06 11.06 115.3 115.3 0 0 1 33.33-11.58z"/>
</svg>