<svg xmlns="http://www.w3.org/2000/svg" viewBox="0 0 600 600">
  <path fill="#e49977" d="M512.1 87.82c54.3 54.3 87.9 129.3 87.9 212.16C600 465.68 465.68 600 300 600c-82.84 0-157.83-33.58-212.12-87.88"/>
  <path fill="#bab1ab" d="M87.88 512.12C33.58 457.84 0 382.82 0 300 0 134.3 134.32 0 300 0c82.81 0 157.8 33.56 212.1 87.82"/>
  <path d="M529.8 446.63c-10.3 24.6-30.78 36.88-61.44 36.88a87.1 87.1 0 0 0-18.26 2.1c-9.84 2.12-14.75 5.04-14.75 8.79 0 1.17.81 2.5 2.46 4.04 1.62 1.52 3.05 2.29 4.22 2.29-5.87 0-1.89.17 11.92.5 13.82.37 22.48.54 26 .54-20.37 11.94-54.42 17.44-102.18 16.5-15.68-.22-29.14-7.12-40.37-20.7-11.01-12.88-16.5-27.27-16.5-43.19 0-16.86 5.67-31.18 17.03-43.02 11.34-11.8 25.45-17.71 42.3-17.71 3.74 0 8.72.82 14.92 2.44 6.2 1.64 10.36 2.46 12.46 2.46 8.66 0 19.43-3.58 32.31-10.7 12.88-7.14 18.96-10.72 18.26-10.72-2.35 24.59-10.54 41.1-24.58 49.5-10.07 5.87-15.1 11.6-15.1 17.2 0 3.52 2.1 6.34 6.31 8.44a24.16 24.16 0 0 0 10.9 2.45c6.08 0 12.04-3.74 17.9-11.23 5.84-7.48 8.41-14.28 7.71-20.37-.7-7.03-.22-15.45 1.41-25.27.46-2.82 2.17-6.27 5.09-10.37 2.93-4.1 5.57-6.62 7.9-7.57 0 2.13-.76 5.64-2.28 10.54-1.52 4.92-2.28 8.56-2.28 10.88 0 5.16 1.4 9.14 4.22 11.94 4.2-1.62 7.94-6.9 11.23-15.8a64.14 64.14 0 0 0 4.92-19.65c-9.84-.46-19.26-4.92-28.26-13.36-9.01-8.42-13.52-17.55-13.52-27.38 0-1.62.23-3.28.7-4.91 1.4 2.12 3.5 5.4 6.32 9.84 3.98 5.85 7.02 8.78 9.13 8.78 2.8 0 4.21-2.93 4.21-8.78 0-7.5-1.99-14.28-5.97-20.37-4.46-7.27-10.2-10.88-17.2-10.88-3.29 0-8.2 1.75-14.75 5.26-6.56 3.5-12.53 5.27-17.9 5.27-1.63 0-8.9-2.12-21.77-6.32 22.7-3.75 34.06-7.14 34.06-10.2 0-7.95-15.57-13.34-46.7-16.13-3.05-.23-8.66-.7-16.86-1.4.93-1.17 7.61-2.45 20.02-3.87 10.53-1.15 17.9-1.76 22.11-1.76 55.71 0 91.05 27.04 106.04 81.13 2.58-2.15 3.87-5.7 3.87-10.68 0-6.4-1.87-14.47-5.62-24.2-1.41-3.8-3.65-9.5-6.68-17.1 19.19 24.46 28.8 47.64 28.8 69.5 0 11.54-2.7 22-8.09 31.4-3.5 6.35-10.07 14.46-19.66 24.35-9.6 9.87-16.14 17.52-19.66 22.93 12.88-3.52 21.3-6.21 25.29-8.08 8.88-3.99 16.96-9.96 24.22-17.91 0 3.06-1.3 7.63-3.86 13.68zM376.72 308.66c0 4.2-2.35 6.9-7.02 8.08l-9.13 1.4c-3.28 1.63-8.08 8.08-14.39 19.3-.71-3.5-1.76-8.4-3.17-14.73-2.1.22-5.6 2.1-10.53 5.61-2.1 1.64-5.5 4.1-10.19 7.38 1.41-8.42 6.1-16.96 14.05-25.63 8.43-9.59 16.62-14.38 24.58-14.38 10.53 0 15.8 4.32 15.8 12.97zm61.09 32.3c0 3.98-2.17 7.33-6.5 10.01-4.33 2.69-8.6 4.04-12.81 4.04-5.63 0-10.66-3.14-15.1-9.48-5.39-7.71-10.89-12.75-16.5-15.1a5.75 5.75 0 0 1 4.22-1.76c2.1 0 5.67 1.63 10.7 4.9 5.02 3.3 8.25 4.93 9.66 4.93 1.17 0 3.1-1.63 5.78-4.92 2.7-3.28 5.68-4.9 8.96-4.9 7.73 0 11.59 4.1 11.59 12.29zm-118.27-172.3c0 16.2-5.89 27.26-17.69 33.15-3.44 1.72-14.23 4.07-32.41 7-11.79 1.97-17.68 6.53-17.68 13.62v29.84c0 1.26.38 5.05 1.1 11.44l1.11 11.79c0 3.68-.86 9.7-2.58 18.05-4.66.97-10.07 2.08-16.2 3.33-1.98-7.38-2.95-12.42-2.95-15.12 0-1.22.3-3.08.91-5.53.62-2.45.93-4.3.93-5.53 0-1.7-1.52-6.5-4.57-14.35h-5.72c-.76 1.21-1 2.81-.76 4.77.99 4.17 1.35 7.73 1.1 10.68a859.95 859.95 0 0 1-17.3 11.8c-1.74-.5-2.34-.75-1.85-.75V256.7c-.5-1.21-1.72-1.7-3.69-1.47h-4.42l-4.42 34.63c-3.44.24-7.6.24-12.52 0-1.72-8.1-4.79-20.13-9.2-36.1h-2.96c-2.7 8.6-4.17 13.27-4.42 14 0 .98.31 2.88.93 5.71a34 34 0 0 1 .91 5.7c0 .73-.25 2.59-.75 5.53l-1.1 8.85c-.5.48-1.1.72-1.84.72-7.37 0-12.29-1.83-14.73-5.51-2.46-3.69-3.45-8.86-2.96-15.48l2.96-44.2c0-.72.24-1.7.73-2.95a8.4 8.4 0 0 0 .74-2.57c0-1.97-2.1-5.9-6.26-11.8-.74-.23-4.55-1.1-11.43-2.58a920.3 920.3 0 0 0-24.67-5.15c-16.94-3.18-25.42-16.82-25.42-40.89 0-35.86 14.74-65.69 44.2-89.5 1.23 6.62 3.32 15.45 6.27 26.5l14.36 3.33c1.48.49 8.97 3.2 22.47 8.11-6.88-4.17-15.84-10.92-26.88-20.26-4.18-4.9-6.28-13.13-6.28-24.68 0-2.7 4.67-5.88 14.01-9.6 8.35-3.42 14.6-5.37 18.79-5.87 13.25-1.71 23.45-2.59 30.58-2.59 30.69 0 55.49 7.87 74.4 23.6-6.13 7.12-16.7 14.71-31.67 22.84 5.89.24 14.49-2.1 25.79-7.01 11.29-4.9 16.08-7.36 14.36-7.36 1.96 0 5.9 3.92 11.79 11.77 4.41 5.9 7.97 11.2 10.68 15.85 7.86 14 13.14 29.11 15.85 45.32 0 5.65.12 9.7.36 12.14v2.93zm-141.1 6.65c0-10.57-4.6-20.57-13.8-30.04-9.22-9.45-19.1-14.17-29.66-14.17-9.33 0-17.55 3.96-24.68 11.86-7.12 7.92-10.68 16.7-10.68 26.34 0 8.4 4.05 13.86 12.16 16.32 5.15 1.49 12.39 2.35 21.73 2.6h20.25c16.45.22 24.69-4.09 24.69-12.91zm40.16 45.67v-11.4a362.7 362.7 0 0 1-5.15-9.96c-1.48-4.9-4.18-11.78-8.1-20.64l-4.06 43.12c0 3.44-.73 5.15-2.21 5.15-.98 0-1.72-.24-2.21-.73-1.73-26.03-2.58-37.34-2.58-33.88v-12.89c-.5-.76-1.1-1.13-1.85-1.13-8.34 8.62-12.51 22.49-12.51 41.63 0 10.57.98 17.07 2.94 19.54 1.97-.5 4.17-1.35 6.64-2.58.98-.5 3.8-.74 8.47-.74 4.65 0 10.32 1.47 16.94 4.4 2.45 0 3.68-6.62 3.68-19.89zm83.25-51.33c0-9.88-3.68-18.71-11.05-26.51-7.37-7.78-15.84-11.67-25.4-11.67-10.32 0-19.98 4.72-28.93 14.18-8.97 9.44-13.46 19.33-13.46 29.65 0 8.6 4.19 12.89 12.53 12.89h42.36c15.97-.24 23.95-6.41 23.95-18.54z"/>
</svg>