<svg xmlns="http://www.w3.org/2000/svg" viewBox="0 0 300 300">
  <path fill="#ccc2c0" d="M300 150c0 82.83-67.15 150-150 150S0 232.83 0 150 67.15 0 150 0s150 67.17 150 150Z"/>
  <path d="M149.06 36.08a266.71 266.71 0 0 0 27.29 43.42 277.8 277.8 0 0 0 15.76 18.45 271.8 271.8 0 0 0 19.36 19.03 213.67 213.67 0 0 0 23.26 17.85 213.8 213.8 0 0 0 27.29 15.38 296.13 296.13 0 0 0-42.67 28.04 273.3 273.3 0 0 0-18.45 15.98c-6.38 6-12.65 12.6-18.79 19.73a255.6 255.6 0 0 0-17.69 23.48 225.33 225.33 0 0 0-15.36 26.86 262.81 262.81 0 0 0-26.88-41.87c-9.22-11.8-20.88-24.18-34.98-37.26-14.07-13.08-31.12-24.72-51.1-34.96a277.12 277.12 0 0 0 42.68-27.66c12.04-9.49 24.45-21.34 37.23-35.54 12.81-14.2 23.8-31.15 33.05-50.93zm-16.51 158.68a150.28 150.28 0 0 1 16.51 25.74c5.66-12.07 12.44-22.41 20.35-31.1a197.56 197.56 0 0 1 23.08-21.92 182.7 182.7 0 0 1 26.5-17.32c-12.3-5.57-22.75-12.38-31.3-20.32-8.6-7.93-15.85-15.6-21.71-23.05a143.88 143.88 0 0 1-16.92-26.86c-5.63 12.28-12.38 22.79-20.16 31.47a192.63 192.63 0 0 1-22.86 21.93 159 159 0 0 1-26.51 16.88c12.3 6.38 22.78 13.57 31.5 21.5 8.7 7.94 15.9 15.66 21.52 23.05z"/>
</svg>