<svg xmlns="http://www.w3.org/2000/svg" viewBox="0 0 600 600">
  <path fill="#a3c095" d="M600 299.99C600 465.68 465.69 600 299.99 600 134.3 600 0 465.68 0 299.99S134.31 0 299.99 0C465.69 0 600 134.31 600 299.99Z"/>
  <path d="M562.57 337.35c0 10-3.87 18.98-11.61 26.99-7.74 7.99-16.62 11.99-26.62 11.99-15.97 0-27.74-7.5-35.21-22.5l-35.23-1.5c-7.51 0-22.25 3.27-44.23 9.76-23.48 6.49-36.98 11.74-40.47 15.74-5.5 5.98-9.99 19.99-13.49 41.97-3.01 17.99-4.49 31.23-4.49 39.73 0 13.47 2.11 23.36 6.37 29.6 4.25 6.25 13 11.5 26.22 15.74 13.23 4.24 21.37 6.62 24.37 7.12 2 0 5.24-.24 9.75-.75h8.99c6.48 0 13.23 1.02 20.24 3 10 3 14.25 7 12.75 12-7.01-1-19.25.5-36.73 4.5l20.98 10.49c0 6-8.5 8.99-25.48 8.99-4.51 0-10.63-1-18.38-2.99-7.74-2.02-12.87-3-15.35-3h-9.75c-.5 5-2 12.48-4.5 22.48-8.51-.5-18.48-5.51-29.98-15-11.5-9.47-18.74-14.23-21.72-14.23-3.02 0-7.27 4.76-12.75 14.24-5.51 9.48-8.25 15.98-8.25 19.49-6.5-3.5-11.98-10.01-16.5-19.5-2-6.5-4.25-12.99-6.73-19.48-5 .5-14.25 11-27.73 31.49h-3.76c-1-1.51-4.77-12-11.24-31.49-15.49-5-29.97-7.49-43.47-7.49-6.5 0-16.49 1.5-29.98 4.49l-20.97-1.49c2.98-3 11.73-8.74 26.22-17.24 16.98-10 29.98-15 38.98-15 1.47 0 3.47.26 6 .75 2.48.52 4.5.75 6 .75 3.47 0 9.1-1.87 16.85-5.62 7.75-3.74 12.24-7.12 13.48-10.1 1.26-3.03 1.9-10.77 1.9-23.26 0-28.47-7.5-49.7-22.5-63.7-13.01-12.5-34.48-21.48-64.47-26.99-8 28.48-30.48 42.74-67.44 42.74-12 0-23.99-7.24-35.98-21.74-11.97-14.5-17.97-27.74-17.97-39.72 0-18.5 7.72-33.73 23.21-45.74-12.48-12.97-18.72-26.22-18.72-39.7 0-12.5 3.85-23.49 11.61-33 7.75-9.47 17.86-14.98 30.36-16.5-1-15.96 4.24-26.97 15.73-32.97-5.5-5.48-8.23-15.22-8.23-29.21 0-16.49 5.5-30.24 16.48-41.23 10.98-10.99 24.73-16.5 41.22-16.5 18 0 32.74 6.27 44.22 18.75 14.5-49.46 45.73-74.2 93.68-74.2 24.99 0 46.97 10 65.97 29.99 7 7.49 10.48 11.5 10.48 11.97-6 0-2.98-1.12 9-3.36 11.98-2.25 20.72-3.38 26.24-3.38 19.48 0 36.72 7.24 51.72 21.74 12.98 13 21.98 29.47 26.98 49.46 3.48.5 9 2 16.5 4.49 10.97 5.52 16.48 14.99 16.48 28.49 0 2.5-2.02 7.25-6 14.24 31.97 17.98 47.96 42.97 47.96 74.95 0 8.99-3.49 21.5-10.48 37.48 13 7.48 19.47 18.49 19.47 32.97zm-308.8 32.98v-9.74c0-11.49-5.62-21.99-16.85-31.48-11.25-9.49-22.62-14.24-34.1-14.24a80.7 80.7 0 0 0-38.98 9.73c26.47-1.49 56.46 13.76 89.93 45.73zm-13.48-92.94a188.84 188.84 0 0 1-19.5-26.24c-20.98 5.5-31.47 11.75-31.47 18.73 6-.48 14.74.63 26.22 3.38 11.49 2.76 19.75 4.13 24.75 4.13zm45.73-23.24v-32.97c-12-2-19.27-3-21.74-3v11.24zm97.43-20.98c-6-2.5-17.25-7.5-33.73-15v64.46c23.47-13.5 34.71-29.99 33.73-49.46zm41.2 88.44-16.48-20.24c-9.98 7-20.1 14.13-30.36 21.37a137.76 137.76 0 0 0-26.6 24.36c22.49-12.01 46.98-20.48 73.44-25.49z"/>
</svg>