<svg xmlns="http://www.w3.org/2000/svg" viewBox="0 0 600 600">
  <path fill="#c1d7e9" d="M512.1 87.82c54.32 54.3 87.9 129.3 87.9 212.16C600 465.68 465.68 600 300 600c-82.84 0-157.83-33.58-212.12-87.88"/>
  <path fill="#a3c095" d="M87.88 512.12C33.58 457.84 0 382.83 0 299.98 0 134.3 134.32 0 300 0c82.82 0 157.8 33.56 212.1 87.82"/>
  <path d="M460.34 502.05c-16.16 16.43-36.05 24.65-59.67 24.65-26.55 0-47.58-9.09-63.15-27.24-14.7-17.3-22.06-39.35-22.06-66.17 0-28.82 12.54-61.69 37.63-98.6a372.77 372.77 0 0 1 72.21-79.59c-4.05 18.46-6.05 31.57-6.05 39.37 0 17.88 5.62 35.31 16.87 52.32 13.84 20.2 24.37 35.19 31.57 44.98 11.24 17.01 16.88 33.6 16.88 49.73-.01 23.94-8.1 44.13-24.23 60.55zm-.45-92.33c-4.32-9.65-9.37-16.08-15.13-19.25.88 1.73 1.3 4.2 1.3 7.36 0 6.06-1.72 14.72-5.19 25.94l-5.62 17.31c0 10.08 5.04 15.14 15.12 15.14 10.66 0 16.01-7.07 16.01-21.2 0-7.2-2.16-15.64-6.5-25.3zM309.85 205.71c0 4.54-1.76 8.63-5.28 12.26-3.52 3.62-7.55 5.42-12.1 5.42-7.24 0-12.59-3.39-15.98-10.2l-16-.67c-3.4 0-10.1 1.47-20.07 4.42-10.66 2.94-16.79 5.32-18.38 7.14-2.49 2.72-4.53 9.09-6.12 19.06-1.37 8.16-2.04 14.18-2.04 18.05 0 6.1.96 10.6 2.88 13.44 1.93 2.83 5.9 5.2 11.9 7.12 6.01 1.92 9.7 3.02 11.07 3.23.9 0 2.38-.1 4.42-.34h4.09c2.94 0 6 .47 9.19 1.37 4.53 1.35 6.46 3.17 5.79 5.43-3.19-.43-8.74.23-16.67 2.05l9.52 4.77c0 2.72-3.86 4.08-11.57 4.08-2.05 0-4.83-.44-8.34-1.36-3.52-.91-5.85-1.37-6.98-1.37h-4.41a81.37 81.37 0 0 1-2.05 10.22c-3.87-.24-8.4-2.51-13.62-6.81-5.22-4.32-8.5-6.47-9.86-6.47-1.37 0-3.3 2.15-5.79 6.47-2.5 4.3-3.74 7.25-3.74 8.85-2.95-1.6-5.43-4.55-7.5-8.85-.9-2.97-1.92-5.9-3.05-8.86-2.27.22-6.46 5-12.6 14.3h-1.7c-.45-.68-2.16-5.44-5.11-14.3-7.03-2.27-13.6-3.4-19.73-3.4-2.94 0-7.5.68-13.62 2.05l-9.51-.66c1.35-1.38 5.32-3.99 11.9-7.85 7.7-4.54 13.6-6.81 17.69-6.81.67 0 1.58.12 2.72.35 1.13.24 2.05.35 2.73.35 1.57 0 4.13-.86 7.65-2.57 3.51-1.7 5.56-3.22 6.11-4.59.59-1.37.88-4.88.88-10.55 0-12.93-3.41-22.57-10.22-28.93-5.9-5.65-15.65-9.74-29.26-12.25-3.63 12.92-13.85 19.4-30.62 19.4-5.46 0-10.9-3.28-16.34-9.87-5.43-6.6-8.17-12.6-8.17-18.04 0-8.4 3.52-15.31 10.55-20.76-5.66-5.89-8.5-11.9-8.5-18.03a23 23 0 0 1 5.27-14.98c3.51-4.3 8.12-6.8 13.78-7.5-.44-7.24 1.93-12.25 7.15-14.96-2.5-2.49-3.74-6.9-3.74-13.26 0-7.49 2.48-13.72 7.48-18.71 4.98-5 11.23-7.5 18.7-7.5 8.18 0 14.88 2.85 20.09 8.5 6.59-22.45 20.75-33.67 42.53-33.67 11.34 0 21.33 4.54 29.94 13.62 3.18 3.38 4.76 5.21 4.76 5.43-2.71 0-1.35-.51 4.09-1.53 5.45-1.02 9.4-1.54 11.91-1.54 8.85 0 16.67 3.3 23.5 9.88 5.89 5.9 9.97 13.37 12.25 22.45 1.57.23 4.07.9 7.47 2.04 4.99 2.5 7.49 6.81 7.49 12.94 0 1.13-.91 3.29-2.72 6.46 14.51 8.17 21.78 19.5 21.78 34.02 0 4.09-1.6 9.77-4.76 17.03 5.9 3.41 8.87 8.4 8.87 14.99zm-140.21 14.98v-4.43c0-5.22-2.55-9.98-7.66-14.29-5.1-4.32-10.26-6.46-15.48-6.46a36.62 36.62 0 0 0-17.7 4.41c12.03-.67 25.64 6.23 40.84 20.77zm-6.13-42.19a87.43 87.43 0 0 1-8.84-11.92c-9.54 2.5-14.3 5.34-14.3 8.5 2.72-.22 6.7.3 11.9 1.54 5.22 1.26 8.98 1.88 11.24 1.88zm20.78-10.56v-14.98c-5.46-.9-8.75-1.36-9.88-1.36v5.1zm44.23-9.53c-2.73-1.13-7.83-3.4-15.33-6.8v29.25c10.68-6.13 15.77-13.6 15.33-22.45zm18.7 40.15-7.48-9.17-13.8 9.69a62.28 62.28 0 0 0-12.06 11.06 116.1 116.1 0 0 1 33.33-11.58z"/>
</svg>