<svg xmlns="http://www.w3.org/2000/svg" viewBox="0 0 600 600">
  <path fill="#f8f6d8" d="M512.1 87.82c54.3 54.3 87.9 129.3 87.9 212.16C600 465.68 465.68 600 300 600c-82.84 0-157.83-33.58-212.12-87.88"/>
  <path fill="#a3c095" d="M87.88 512.12C33.58 457.84 0 382.83 0 300 0 134.3 134.32 0 300 0c82.81 0 157.8 33.56 212.1 87.82"/>
  <path d="M528 438.67c-14.62-13.59-24.32-20.95-29.09-22.1-3.45-.83-6.8 1.2-10.03 6.03-3.22 4.85-7.75 6.56-13.6 5.16-2.38-.57-7.06-2.61-14.01-6.12-5.63 5.32-8.65 8.84-9.07 10.56-.57 2.4.54 5.63 3.3 9.73 2.77 4.1 5.37 6.43 7.81 7.03 1.55.37 3.73.54 6.54.53 2.81 0 4.67.1 5.57.3 2.65.63 2.81 5.83.46 15.58-2.22 9.33-7.8 23.13-16.75 41.36-.36-23.45-3.66-35.94-9.94-37.43-.87-.2-2.81.03-5.83.67-3.03.64-5.19.82-6.48.5-6.29-1.5-10.55-8.6-12.79-21.27-10.34-.87-16.54 3.04-18.62 11.7-1.04 4.35.14 8.3 3.54 11.85 3.38 3.55 4.94 5.88 4.69 6.96-1.4 5.86-12.13 12.8-32.14 20.84a1371.14 1371.14 0 0 0-22.12 9.13c3.95-3.17 8.21-7.53 12.76-13.09 5.17-6.34 8.22-11.44 9.17-15.35.51-2.16-1.26-5.8-5.3-10.89-4.06-5.1-5.56-9.8-4.53-14.13.88-3.68 3.26-7.92 7.17-12.72-2.05-3.92-5.01-6.36-8.91-7.29-8.67-2.1-13.68-.3-15.03 5.34l-2.1 8.78c-1.5 7.2-7.77 9.47-18.82 6.85-8.46-2.03-22.18-7.38-41.19-16.05 23.89-.23 36.71-4.04 38.47-11.42-.2.88-.02-1.83.58-8.11.73-6.92 6.96-11.85 18.65-14.78.43-10.43-3.57-16.66-12.03-18.68-1.3-.32-4.23 1.39-8.77 5.1-4.57 3.73-8.36 5.24-11.4 4.5-5.2-1.22-10.57-8.47-16.1-21.71-2.56-6.57-6.52-16.34-11.9-29.32 4.37 3.8 8.72 7.6 13.1 11.38 5.78 4.6 10.62 7.36 14.51 8.3 3.04.72 6.65-1.22 10.85-5.84 4.2-4.61 8.68-6.35 13.44-5.2.67.16 4.68 2.49 12.08 7.01 5.62-5.3 8.8-9.45 9.53-12.49.6-2.6-.24-5.96-2.59-10.07-2.34-4.12-4.81-6.48-7.41-7.11-1.09-.27-2.84-.34-5.27-.23-2.43.11-4.19.03-5.27-.23-3.9-.94-4.69-6.27-2.35-16.02.6-2.61 6.66-16.86 18.13-42.75-1 3.19-1.04 9.61-.13 19.22 1.09 11.72 4.12 18.15 9.11 19.37.86.19 2.75-.04 5.68-.71 2.9-.68 5.1-.84 6.62-.48 4.98 1.2 8.42 5 10.34 11.41l2.78 9.93a15.3 15.3 0 0 0 12.54-2.14 17.03 17.03 0 0 0 7.36-10.61c1.13-4.77 0-8.88-3.41-12.35-3.41-3.44-4.97-5.83-4.65-7.12 1.09-4.55 10.08-10.53 26.97-17.94 13.56-5.92 22.25-9.23 26.1-9.92-12.33 10.36-19.2 18.43-20.6 24.3-.72 3.03.33 6.72 3.19 11.08 3.57 5.2 5.47 8.75 5.7 10.63.96 5.5-.88 12.27-5.55 20.34 4.86 5.52 8.82 8.62 11.86 9.36 6.27 1.5 10.2-1 11.75-7.5.15-.65.38-2.77.67-6.37.28-3.6.59-5.59.9-5.97 1.6-2.83 7.92-2.92 18.97-.27 6.94 1.65 20.88 7.05 41.84 16.2-5.08.14-12.7.38-22.85.7-9.3.54-14.34 2.42-15.12 5.67-.36 1.52-.44 4.24-.24 8.18.2 3.94.1 6.8-.32 8.51-.72 3.05-3.35 5.38-7.87 7.05l-12.93 5.17c1.47 5.38 2.52 8.62 3.19 9.7 1.55 3.1 4.15 5.12 7.83 6 2.6.62 5.54-1.1 8.8-5.13 3.25-4.03 7.27-5.48 12.04-4.33 5.85 1.39 11.16 8.38 15.94 20.99 2.67 7.07 6.86 17.8 12.58 32.24zm-67.64-36.12c3.3-13.88 1.1-27.12-6.65-39.75-7.75-12.62-18.57-20.6-32.43-23.9-14.08-3.37-27.43-1.23-40.02 6.42-12.6 7.62-20.69 18.46-24.28 32.49-3.54 13.81-1.26 27.03 6.85 39.62 8.1 12.58 19.08 20.55 32.96 23.87 14.72 3.52 28.18 1.63 40.35-5.64 12.15-7.28 19.9-18.33 23.22-33.1zm-4.9-1.17c-3.15 13.21-10.21 23.1-21.17 29.63-10.96 6.54-23.06 8.24-36.27 5.08-12.78-3.08-22.66-10.13-29.64-21.2-6.98-11.05-8.93-22.97-5.87-35.76 3.02-12.57 10.19-22.25 21.55-29.05 11.38-6.78 23.33-8.67 35.9-5.66 12.57 3 22.37 10.15 29.4 21.46 7.02 11.32 9.06 23.15 6.1 35.5zm-145.62-195.5c0 4.55-1.76 8.63-5.27 12.26-3.52 3.63-7.55 5.45-12.1 5.45-7.24 0-12.59-3.4-15.98-10.2l-16-.7c-3.4 0-10.1 1.48-20.07 4.43-10.66 2.94-16.79 5.34-18.38 7.14-2.49 2.71-4.53 9.08-6.12 19.05-1.37 8.17-2.04 14.19-2.04 18.05 0 6.13.96 10.61 2.88 13.43 1.93 2.85 5.9 5.22 11.9 7.15 6.01 1.91 9.7 3 11.07 3.22.9 0 2.38-.11 4.42-.35h4.09c2.94 0 6 .47 9.19 1.38 4.53 1.37 6.46 3.17 5.79 5.45-3.19-.46-8.74.22-16.67 2.04l9.52 4.76c0 2.72-3.86 4.09-11.57 4.09-2.05 0-4.83-.46-8.34-1.37-3.52-.9-5.85-1.36-6.98-1.36h-4.41a80.87 80.87 0 0 1-2.05 10.2c-3.87-.23-8.4-2.5-13.62-6.81-5.22-4.3-8.5-6.47-9.86-6.47-1.37 0-3.3 2.16-5.79 6.47-2.5 4.32-3.74 7.26-3.74 8.85-2.95-1.59-5.43-4.53-7.5-8.85-.9-2.95-1.92-5.9-3.05-8.85-2.27.23-6.46 4.99-12.6 14.3h-1.7c-.45-.69-2.16-5.45-5.11-14.3-7.03-2.27-13.6-3.4-19.73-3.4-2.94 0-7.5.69-13.62 2.04l-9.51-.67c1.35-1.37 5.32-3.97 11.9-7.83 7.7-4.53 13.6-6.8 17.69-6.8.67 0 1.58.11 2.72.34 1.13.22 2.05.34 2.73.34 1.57 0 4.13-.85 7.65-2.56 3.51-1.68 5.56-3.22 6.11-4.59.59-1.37.87-4.88.87-10.56 0-12.92-3.4-22.56-10.22-28.92-5.9-5.66-15.65-9.75-29.26-12.24-3.62 12.93-13.84 19.4-30.62 19.4-5.45 0-10.89-3.3-16.34-9.88-5.43-6.58-8.16-12.59-8.16-18.03 0-8.4 3.51-15.33 10.55-20.77-5.67-5.88-8.51-11.9-8.51-18.03 0-5.68 1.75-10.66 5.27-14.99 3.52-4.3 8.12-6.8 13.78-7.47-.44-7.26 1.93-12.25 7.15-14.97-2.5-2.5-3.74-6.92-3.74-13.27 0-7.48 2.49-13.73 7.48-18.71 4.98-5 11.24-7.5 18.7-7.5 8.18 0 14.88 2.87 20.1 8.52 6.58-22.46 20.75-33.69 42.53-33.69 11.34 0 21.32 4.54 29.94 13.62 3.18 3.4 4.76 5.22 4.76 5.44-2.72 0-1.35-.52 4.08-1.54 5.46-1.02 9.41-1.53 11.92-1.53 8.84 0 16.67 3.3 23.49 9.87 5.89 5.9 9.98 13.38 12.25 22.46 1.58.23 4.07.9 7.48 2.04 4.98 2.51 7.48 6.8 7.48 12.93 0 1.13-.9 3.3-2.72 6.46 14.51 8.16 21.78 19.51 21.78 34.04 0 4.08-1.59 9.75-4.76 17 5.92 3.43 8.87 8.44 8.87 15zm-140.2 14.99v-4.4c0-5.23-2.55-10-7.66-14.3-5.1-4.3-10.26-6.47-15.48-6.47a36.49 36.49 0 0 0-17.7 4.41c12.03-.68 25.64 6.25 40.84 20.76zm-6.13-42.2a86.66 86.66 0 0 1-8.84-11.9c-9.54 2.5-14.3 5.33-14.3 8.5 2.72-.21 6.7.28 11.9 1.54 5.22 1.25 8.98 1.86 11.24 1.86zm20.78-10.54v-14.98c-5.46-.9-8.75-1.37-9.88-1.37v5.1zm44.23-9.53c-2.73-1.13-7.83-3.4-15.33-6.8v29.26c10.68-6.14 15.77-13.62 15.33-22.46zm18.7 40.16-7.48-9.2c-4.53 3.18-9.13 6.4-13.8 9.7a62.8 62.8 0 0 0-12.06 11.06c10.2-5.45 21.33-9.3 33.33-11.56z"/>
</svg>