<svg xmlns="http://www.w3.org/2000/svg" viewBox="0 0 512 512">
  <path fill-rule="evenodd" d="M283 68.6c-7.02 1.86-14.74 5.62-18.23 8.89-3.83 3.59-7.22 15.06-6.42 21.77.8 6.84 4.4 13.73 8.65 16.6 3.24 2.18 4.16 2.3 12.5 1.74 4.95-.34 10.65-1.07 12.68-1.63 4.77-1.33 11.7-8.39 15.4-15.72 2.62-5.17 2.92-6.72 2.92-15.43 0-8.28-.3-10.08-2.1-12.5-3.76-5.02-14.55-6.6-25.4-3.73m-9.5 109.34c-12.66 4.51-32.16 16.83-49.92 31.53-13.45 11.13-20.39 18.39-21.59 22.57-1.1 3.83-1.33 11.3-.38 12.25.33.33 3.84-1.83 7.8-4.8 13.03-9.81 25.74-15.26 29.1-12.47 2.87 2.38 1.48 11.91-9.43 64.67-23.51 113.71-22.46 107.81-22.52 125.82-.06 14.86.1 16.3 2.25 20.33 2.37 4.43 6.75 7.18 11.4 7.16 4-.03 18.53-5.61 26.04-10 16-9.38 33.98-24.99 46.88-40.69 5.74-6.99 5.94-7.43 6.94-15.4.7-5.6.7-8.52 0-9.22-.7-.7-4.12 1.96-10.8 8.41-10.97 10.6-17.57 15.2-24.45 17.04-6.46 1.72-9.35.33-10.84-5.22-1.96-7.25.67-22.15 19.51-110.91 15.9-74.83 17.61-85.3 15.53-94.48-2-8.78-5.37-10.21-15.52-6.59"/>
  <path fill="#ccc4c4" fill-rule="evenodd" d="M223.5 1.53C177.34 7.54 135 25.19 98 53.83 86.31 62.89 66.42 82.47 56.7 94.5c-27.64 34.22-45.93 74.6-53.73 118.63C.2 228.75-.88 266.18.94 283.28c4.26 39.95 18.12 79.05 39.78 112.22 9.82 15.02 18.4 25.67 31.74 39.36 41.95 43.05 94.87 69.02 155.04 76.08 13.36 1.57 46.04 1.31 60.46-.48 74.81-9.26 141.66-51.18 183.32-114.96 20.89-31.99 36.3-74.64 39.32-108.78.37-4.28 1.07-8.02 1.54-8.3.47-.3.86-10.89.86-23.54 0-12.67-.39-22.76-.86-22.46-.48.29-1.18-2.95-1.57-7.2-.93-10.35-3.93-25.58-7.62-38.72-16.7-59.46-55.13-111.6-107.45-145.78A253.87 253.87 0 0 0 287.96 1.53c-15.13-1.87-50.1-1.87-64.46 0M283 68.59c-7.02 1.86-14.74 5.63-18.23 8.9-3.83 3.59-7.22 15.06-6.42 21.77.8 6.84 4.4 13.73 8.65 16.6 3.24 2.18 4.16 2.3 12.5 1.74 4.95-.34 10.65-1.07 12.68-1.63 4.77-1.33 11.7-8.39 15.4-15.72 2.62-5.17 2.92-6.72 2.92-15.43 0-8.28-.3-10.08-2.1-12.5-3.76-5.02-14.55-6.6-25.4-3.73m-9.5 109.34c-12.66 4.51-32.16 16.83-49.92 31.53-13.45 11.13-20.39 18.39-21.59 22.57-1.1 3.83-1.33 11.3-.38 12.25.33.33 3.84-1.83 7.8-4.8 13.03-9.81 25.74-15.26 29.1-12.47 2.87 2.38 1.48 11.91-9.43 64.67-23.51 113.71-22.46 107.81-22.52 125.82-.06 14.86.1 16.3 2.25 20.33 2.37 4.43 6.75 7.18 11.4 7.16 4-.03 18.53-5.61 26.04-10 16-9.38 33.98-24.99 46.88-40.69 5.74-6.99 5.94-7.43 6.94-15.4.7-5.6.7-8.52 0-9.22-.7-.7-4.12 1.96-10.8 8.41-10.97 10.6-17.57 15.2-24.45 17.04-6.46 1.72-9.35.33-10.84-5.22-1.96-7.25.67-22.15 19.51-110.91 15.9-74.83 17.61-85.3 15.53-94.48-2-8.78-5.37-10.21-15.52-6.59M.43 256c0 12.93.14 18.21.32 11.75.17-6.46.17-17.04 0-23.5-.18-6.46-.32-1.18-.32 11.75"/>
</svg>