<svg xmlns="http://www.w3.org/2000/svg" viewBox="0 0 600 600">
  <circle cx="300" cy="300" r="300" fill="#e49977"/>
  <path d="M551.79 399.7c-22.42 53.47-66.96 80.2-133.65 80.2-12.22 0-25.48 1.53-39.73 4.58-21.38 4.58-32.07 10.96-32.07 19.11 0 2.55 1.77 5.46 5.34 8.78 3.56 3.32 6.63 4.96 9.17 4.96-12.74 0-4.08.38 25.95 1.14 30.05.76 48.89 1.15 56.53 1.15-44.3 25.95-118.39 37.91-222.25 35.88-34.13-.5-63.4-15.52-87.84-45.06-23.95-28.01-35.9-59.32-35.9-93.94 0-36.65 12.34-67.85 37.05-93.57 24.68-25.7 55.38-38.57 92.03-38.57 8.14 0 18.96 1.79 32.46 5.35 13.49 3.56 22.54 5.35 27.11 5.35 18.83 0 42.27-7.76 70.28-23.3 28-15.53 41.25-23.3 39.72-23.3-5.1 53.47-22.92 89.38-53.48 107.69-21.89 12.74-32.84 25.2-32.84 37.41 0 7.64 4.59 13.76 13.75 18.35 7.13 3.57 15.01 5.35 23.67 5.35 13.24 0 26.22-8.14 38.96-24.43 12.72-16.3 18.33-31.06 16.8-44.31-1.52-15.27-.5-33.62 3.07-54.99 1-6.12 4.7-13.62 11.06-22.52 6.37-8.92 12.1-14.39 17.2-16.43 0 4.57-1.66 12.22-4.98 22.9-3.31 10.7-4.95 18.6-4.95 23.69 0 11.2 3.05 19.85 9.16 25.96 9.15-3.56 17.3-15.02 24.44-34.38 6.1-14.75 9.66-29.01 10.69-42.76-21.4-1.02-41.9-10.69-61.49-29.03-19.6-18.34-29.4-38.19-29.4-59.57 0-3.56.5-7.12 1.54-10.7 3.05 4.59 7.62 11.72 13.73 21.39 8.66 12.73 15.28 19.1 19.88 19.1 6.1 0 9.15-6.37 9.15-19.1 0-16.29-4.34-31.06-12.98-44.3-9.68-15.78-22.16-23.68-37.43-23.68-7.14 0-17.83 3.82-32.07 11.46-14.27 7.63-27.25 11.46-38.95 11.46-3.57 0-19.37-4.6-47.37-13.76 49.38-8.13 74.09-15.51 74.09-22.14 0-17.31-33.87-29.03-101.58-35.13-6.63-.5-18.85-1.53-36.67-3.06 2.03-2.55 16.55-5.35 43.55-8.4 22.91-2.54 38.95-3.83 48.11-3.83 121.18 0 198.07 58.83 230.66 176.45 5.6-4.64 8.41-12.4 8.41-23.22 0-13.95-4.08-31.5-12.22-52.67-3.07-8.25-7.91-20.64-14.52-37.15 41.74 53.2 62.63 103.62 62.63 151.19 0 25.07-5.87 47.84-17.58 68.29-7.62 13.81-21.9 31.46-42.76 52.95-20.88 21.48-35.14 38.11-42.79 49.88 28.01-7.63 46.35-13.49 55.01-17.57 19.34-8.64 36.9-21.63 52.7-38.95 0 6.64-2.8 16.57-8.4 29.8zM218.78 99.55c0 9.15-5.1 15.01-15.27 17.56l-19.87 3.06c-7.13 3.56-17.57 17.57-31.31 42-1.54-7.63-3.82-18.32-6.88-32.08-4.58.52-12.2 4.59-22.9 12.22a611.97 611.97 0 0 1-22.16 16.04c3.07-18.33 13.24-36.9 30.56-55.76 18.33-20.86 36.15-31.3 53.46-31.3 22.9 0 34.37 9.43 34.37 28.26zm132.9 70.26c0 8.65-4.71 15.92-14.13 21.77-9.42 5.86-18.72 8.79-27.88 8.79-12.22 0-23.18-6.88-32.84-20.63-11.73-16.8-23.68-27.75-35.9-32.86a12.55 12.55 0 0 1 9.17-3.81c4.59 0 12.33 3.56 23.29 10.69 10.94 7.13 17.94 10.7 21.01 10.7 2.55 0 6.74-3.57 12.6-10.7 5.85-7.13 12.34-10.69 19.48-10.69 16.8 0 25.2 8.92 25.2 26.74z"/>
</svg>