<svg xmlns="http://www.w3.org/2000/svg" viewBox="0 0 600 600">
  <path fill="#a3c095" d="M512.1 87.82c54.31 54.3 87.9 129.3 87.9 212.16C600 465.68 465.68 600 300 600c-82.84 0-157.83-33.58-212.12-87.88"/>
  <path fill="#e49977" d="M87.88 512.12C33.58 457.84 0 382.82 0 300 0 134.3 134.32 0 300 0c82.81 0 157.8 33.56 212.1 87.82"/>
  <path d="M311.62 228.46c-10.3 24.6-30.78 36.87-61.44 36.87a87.1 87.1 0 0 0-18.26 2.1c-9.84 2.12-14.74 5.05-14.74 8.8 0 1.16.81 2.5 2.45 4.04 1.63 1.52 3.05 2.28 4.22 2.28-5.86 0-1.88.18 11.92.51 13.81.36 22.48.54 26 .54-20.38 11.93-54.43 17.43-102.18 16.5-15.69-.22-29.14-7.13-40.38-20.7-11-12.88-16.5-27.28-16.5-43.18 0-16.86 5.67-31.2 17.04-43.03 11.34-11.8 25.45-17.72 42.3-17.72 3.74 0 8.72.82 14.92 2.45 6.2 1.64 10.36 2.46 12.46 2.46 8.67 0 19.43-3.58 32.3-10.71 12.88-7.14 18.97-10.71 18.27-10.71-2.35 24.58-10.54 41.09-24.58 49.5-10.08 5.87-15.1 11.6-15.1 17.2 0 3.52 2.1 6.33 6.31 8.44a24.16 24.16 0 0 0 10.9 2.45c6.08 0 12.04-3.74 17.9-11.23 5.84-7.49 8.42-14.28 7.71-20.38-.69-7.02-.22-15.45 1.41-25.27.47-2.82 2.17-6.27 5.1-10.36 2.92-4.1 5.56-6.62 7.9-7.57 0 2.12-.77 5.63-2.3 10.53-1.52 4.92-2.27 8.57-2.27 10.89 0 5.15 1.4 9.13 4.21 11.94 4.21-1.63 7.95-6.9 11.23-15.8a64.17 64.17 0 0 0 4.92-19.66c-9.84-.45-19.26-4.91-28.27-13.35-9.01-8.43-13.51-17.56-13.51-27.38 0-1.63.22-3.28.7-4.91 1.4 2.11 3.5 5.39 6.32 9.84 3.97 5.83 7.02 8.76 9.13 8.76 2.8 0 4.2-2.93 4.2-8.76a36.4 36.4 0 0 0-5.96-20.37c-4.45-7.27-10.19-10.89-17.2-10.89-3.29 0-8.2 1.76-14.75 5.27-6.56 3.5-12.53 5.27-17.89 5.27-1.64 0-8.9-2.13-21.78-6.33 22.7-3.75 34.06-7.14 34.06-10.19 0-7.95-15.57-13.34-46.7-16.14-3.04-.22-8.65-.7-16.85-1.4.93-1.16 7.6-2.45 20.02-3.87 10.53-1.15 17.9-1.76 22.1-1.76 55.72 0 91.06 27.04 106.04 81.12 2.59-2.14 3.88-5.7 3.88-10.67 0-6.41-1.88-14.48-5.62-24.21a799.4 799.4 0 0 0-6.68-17.09c19.18 24.45 28.8 47.63 28.8 69.5 0 11.53-2.7 22-8.09 31.39-3.5 6.36-10.07 14.47-19.65 24.35-9.6 9.88-16.15 17.52-19.67 22.93 12.88-3.51 21.32-6.21 25.3-8.09 8.87-3.97 16.96-9.95 24.21-17.9 0 3.07-1.3 7.62-3.86 13.7zM158.53 90.47c0 4.22-2.34 6.9-7.02 8.1l-9.12 1.4c-3.3 1.62-8.09 8.07-14.4 19.3-.7-3.5-1.75-8.42-3.16-14.75-2.1.23-5.62 2.12-10.53 5.62-2.1 1.64-5.5 4.1-10.19 7.38 1.41-8.43 6.1-16.96 14.05-25.63 8.43-9.6 16.63-14.38 24.58-14.38 10.53-.01 15.8 4.32 15.8 12.96zm61.1 32.32c0 3.96-2.17 7.32-6.5 10-4.34 2.7-8.6 4.05-12.81 4.05-5.63 0-10.67-3.15-15.1-9.5-5.4-7.7-10.89-12.74-16.51-15.1a5.74 5.74 0 0 1 4.22-1.75c2.1 0 5.67 1.63 10.7 4.9 5.02 3.3 8.24 4.93 9.65 4.93 1.17 0 3.1-1.63 5.8-4.92 2.68-3.28 5.66-4.9 8.95-4.9 7.74 0 11.6 4.1 11.6 12.29zM537.11 405.7c0 4.55-1.75 8.63-5.27 12.26-3.52 3.63-7.55 5.43-12.1 5.43-7.24 0-12.58-3.4-15.97-10.2l-16-.67c-3.4 0-10.11 1.47-20.08 4.42-10.66 2.94-16.78 5.33-18.37 7.13-2.49 2.73-4.53 9.09-6.13 19.07-1.37 8.16-2.03 14.18-2.03 18.04 0 6.12.96 10.6 2.88 13.44 1.92 2.83 5.9 5.21 11.9 7.13 6 1.9 9.7 3.01 11.06 3.23.91 0 2.38-.1 4.43-.34h4.08c2.95 0 6 .46 9.2 1.36 4.52 1.37 6.46 3.17 5.78 5.45-3.18-.45-8.73.23-16.66 2.04l9.51 4.77c0 2.72-3.86 4.07-11.57 4.07-2.05 0-4.83-.43-8.34-1.35-3.52-.92-5.85-1.37-6.97-1.37h-4.43c-.22 2.27-.9 5.66-2.04 10.2-3.87-.22-8.39-2.5-13.62-6.8-5.22-4.32-8.5-6.47-9.85-6.47-1.37 0-3.31 2.15-5.8 6.48-2.5 4.3-3.74 7.24-3.74 8.85-2.94-1.61-5.43-4.55-7.5-8.85-.9-2.97-1.92-5.92-3.05-8.88-2.27.24-6.46 5.02-12.59 14.31h-1.7c-.47-.68-2.16-5.43-5.12-14.3-7.03-2.26-13.6-3.39-19.72-3.39-2.95 0-7.5.67-13.62 2.05l-9.53-.68c1.36-1.37 5.33-3.97 11.9-7.83 7.71-4.55 13.62-6.82 17.7-6.82.67 0 1.59.12 2.73.35 1.12.24 2.04.35 2.72.35 1.57 0 4.13-.85 7.65-2.56 3.52-1.7 5.56-3.24 6.11-4.6.6-1.37.87-4.88.87-10.55 0-12.92-3.4-22.58-10.21-28.92-5.9-5.67-15.65-9.75-29.27-12.25-3.62 12.92-13.84 19.4-30.61 19.4-5.46 0-10.9-3.3-16.34-9.88-5.44-6.58-8.17-12.59-8.17-18.04 0-8.4 3.52-15.3 10.55-20.75-5.66-5.89-8.5-11.9-8.5-18.04a23 23 0 0 1 5.27-14.97c3.51-4.3 8.11-6.8 13.78-7.5-.45-7.24 1.92-12.24 7.14-14.96-2.5-2.49-3.73-6.9-3.73-13.27 0-7.47 2.48-13.72 7.48-18.71 4.98-4.98 11.22-7.5 18.7-7.5 8.18 0 14.87 2.86 20.09 8.52 6.59-22.46 20.75-33.68 42.53-33.68 11.34 0 21.33 4.53 29.94 13.62 3.18 3.39 4.76 5.2 4.76 5.43-2.71 0-1.35-.52 4.09-1.53 5.45-1.02 9.4-1.54 11.91-1.54 8.85 0 16.67 3.3 23.5 9.88 5.88 5.9 9.97 13.37 12.24 22.45 1.58.24 4.08.9 7.47 2.05 5 2.5 7.5 6.8 7.5 12.93 0 1.13-.91 3.3-2.73 6.47 14.52 8.17 21.78 19.5 21.78 34.02 0 4.09-1.6 9.76-4.75 17.02 5.91 3.41 8.86 8.4 8.86 14.99zm-140.2 14.98v-4.42c0-5.21-2.55-9.98-7.65-14.3-5.11-4.31-10.26-6.45-15.48-6.45a36.75 36.75 0 0 0-17.7 4.4c12.03-.66 25.63 6.25 40.83 20.77zm-6.12-42.18a87.4 87.4 0 0 1-8.85-11.91c-9.53 2.48-14.3 5.33-14.3 8.5 2.72-.23 6.7.27 11.9 1.53 5.23 1.25 8.98 1.88 11.25 1.88zm20.77-10.57v-14.97c-5.46-.9-8.76-1.36-9.88-1.36v5.11zm44.23-9.52a653.4 653.4 0 0 1-15.32-6.8v29.26c10.66-6.14 15.76-13.61 15.32-22.46zm18.7 40.16-7.48-9.18c-4.53 3.18-9.13 6.4-13.79 9.7a62.1 62.1 0 0 0-12.06 11.06 115.3 115.3 0 0 1 33.33-11.58z"/>
</svg>