<svg xmlns="http://www.w3.org/2000/svg" viewBox="0 0 600 600">
  <path fill="#f8f6d8" d="M512.1 87.82c54.31 54.3 87.9 129.3 87.9 212.16C600 465.68 465.68 600 300 600c-82.84 0-157.83-33.58-212.12-87.88"/>
  <path fill="#e49977" d="M87.88 512.12C33.58 457.84 0 382.82 0 300 0 134.3 134.32 0 300 0c82.81 0 157.8 33.56 212.1 87.82"/>
  <path d="M528 438.66c-14.62-13.58-24.32-20.94-29.09-22.09-3.45-.83-6.8 1.19-10.03 6.04-3.22 4.85-7.75 6.55-13.6 5.15-2.38-.57-7.06-2.61-14.01-6.1-5.63 5.3-8.65 8.82-9.07 10.54-.57 2.39.54 5.63 3.3 9.73 2.77 4.1 5.37 6.43 7.81 7.02 1.55.38 3.73.55 6.54.54 2.81 0 4.67.1 5.57.3 2.65.63 2.81 5.83.46 15.6-2.22 9.3-7.8 23.1-16.75 41.35-.36-23.46-3.66-35.94-9.94-37.44-.87-.2-2.81.02-5.83.67-3.03.64-5.19.82-6.48.5-6.29-1.5-10.55-8.6-12.79-21.27-10.34-.87-16.54 3.04-18.62 11.7-1.04 4.35.14 8.3 3.54 11.85 3.38 3.55 4.94 5.87 4.69 6.96-1.4 5.87-12.13 12.8-32.13 20.84a1371.15 1371.15 0 0 0-22.13 9.13c3.96-3.17 8.22-7.54 12.76-13.1 5.18-6.33 8.23-11.43 9.17-15.35.52-2.15-1.25-5.8-5.3-10.88-4.06-5.1-5.56-9.8-4.52-14.13.88-3.68 3.26-7.91 7.16-12.72-2.04-3.92-5-6.36-8.9-7.29-8.67-2.08-13.68-.3-15.03 5.35l-2.1 8.77c-1.5 7.2-7.78 9.48-18.83 6.84-8.45-2.02-22.17-7.37-41.18-16.04 23.88-.23 36.7-4.04 38.46-11.4-.19.87-.01-1.85.59-8.12.73-6.93 6.96-11.87 18.64-14.8.44-10.42-3.56-16.66-12.02-18.67-1.3-.32-4.23 1.38-8.78 5.12-4.56 3.71-8.36 5.22-11.39 4.48-5.2-1.23-10.57-8.47-16.1-21.72a1673.4 1673.4 0 0 0-11.9-29.3c4.36 3.79 8.72 7.59 13.1 11.37 5.77 4.6 10.61 7.36 14.5 8.3 3.04.71 6.66-1.23 10.86-5.85 4.19-4.6 8.67-6.34 13.44-5.2.66.16 4.68 2.5 12.07 7.02 5.63-5.3 8.8-9.46 9.53-12.5.61-2.6-.24-5.96-2.58-10.07-2.34-4.12-4.82-6.47-7.41-7.1a20.52 20.52 0 0 0-5.27-.24 20.6 20.6 0 0 1-5.28-.23c-3.89-.93-4.68-6.27-2.35-16.02.61-2.61 6.66-16.86 18.13-42.74-1 3.18-1.03 9.6-.12 19.21 1.08 11.72 4.12 18.16 9.1 19.37.87.2 2.76-.03 5.68-.7 2.91-.69 5.11-.85 6.63-.48 4.98 1.19 8.42 5 10.33 11.4l2.78 9.93a15.3 15.3 0 0 0 12.54-2.14 17.02 17.02 0 0 0 7.36-10.61c1.14-4.77 0-8.88-3.4-12.33-3.42-3.46-4.98-5.84-4.65-7.13 1.08-4.55 10.08-10.53 26.97-17.94 13.56-5.91 22.25-9.22 26.09-9.9-12.32 10.34-19.2 18.41-20.6 24.27-.72 3.05.34 6.73 3.2 11.1 3.56 5.2 5.47 8.75 5.7 10.62.96 5.52-.88 12.28-5.56 20.34 4.87 5.52 8.82 8.63 11.87 9.37 6.27 1.5 10.19-1 11.74-7.5.16-.65.38-2.78.68-6.38.27-3.6.58-5.59.9-5.97 1.6-2.83 7.92-2.92 18.97-.27 6.93 1.66 20.87 7.05 41.84 16.2-5.09.15-12.7.39-22.86.72-9.3.51-14.33 2.4-15.11 5.65-.36 1.52-.45 4.25-.24 8.18.2 3.94.1 6.8-.32 8.53-.72 3.04-3.35 5.38-7.87 7.05l-12.93 5.15c1.47 5.4 2.52 8.63 3.18 9.7 1.56 3.12 4.16 5.12 7.84 6 2.6.63 5.53-1.07 8.79-5.12 3.25-4.03 7.27-5.48 12.04-4.33 5.85 1.4 11.17 8.39 15.94 21 2.67 7.05 6.86 17.8 12.58 32.21zm-67.64-36.11c3.3-13.88 1.1-27.12-6.65-39.74-7.75-12.62-18.57-20.6-32.43-23.91-14.08-3.37-27.43-1.23-40.02 6.42-12.6 7.62-20.69 18.46-24.28 32.5-3.54 13.81-1.26 27.02 6.85 39.62 8.1 12.58 19.08 20.55 32.96 23.86 14.72 3.53 28.18 1.65 40.35-5.64 12.15-7.29 19.9-18.33 23.22-33.11zm-4.9-1.18c-3.15 13.22-10.21 23.11-21.17 29.64-10.96 6.54-23.06 8.24-36.27 5.07-12.78-3.06-22.66-10.12-29.64-21.18-6.98-11.07-8.93-22.98-5.87-35.77 3.02-12.57 10.19-22.25 21.55-29.05 11.38-6.78 23.33-8.67 35.9-5.66 12.57 3 22.37 10.16 29.4 21.46 7.02 11.32 9.06 23.15 6.1 35.5zM311.62 228.46c-10.3 24.6-30.78 36.87-61.44 36.87a87.1 87.1 0 0 0-18.26 2.1c-9.84 2.12-14.74 5.05-14.74 8.8 0 1.16.81 2.5 2.45 4.04 1.63 1.52 3.05 2.28 4.22 2.28-5.86 0-1.88.18 11.92.51 13.81.36 22.48.54 26 .54-20.38 11.93-54.43 17.43-102.18 16.5-15.69-.22-29.14-7.13-40.38-20.7-11-12.88-16.5-27.28-16.5-43.18 0-16.86 5.67-31.2 17.04-43.03 11.34-11.8 25.45-17.72 42.3-17.72 3.74 0 8.72.82 14.92 2.45 6.2 1.64 10.36 2.46 12.46 2.46 8.67 0 19.43-3.58 32.3-10.71 12.88-7.14 18.97-10.71 18.27-10.71-2.35 24.58-10.54 41.09-24.58 49.5-10.08 5.87-15.1 11.6-15.1 17.2 0 3.52 2.1 6.33 6.31 8.44a24.16 24.16 0 0 0 10.9 2.45c6.08 0 12.04-3.74 17.9-11.23 5.84-7.49 8.42-14.28 7.71-20.38-.69-7.02-.22-15.45 1.41-25.27.47-2.82 2.17-6.27 5.1-10.36 2.92-4.1 5.56-6.62 7.9-7.57 0 2.12-.77 5.63-2.3 10.53-1.52 4.92-2.27 8.57-2.27 10.89 0 5.15 1.4 9.13 4.21 11.94 4.21-1.63 7.95-6.9 11.23-15.8a64.17 64.17 0 0 0 4.92-19.66c-9.84-.45-19.26-4.91-28.27-13.35-9.01-8.43-13.51-17.56-13.51-27.38 0-1.63.22-3.28.7-4.91 1.4 2.11 3.5 5.39 6.32 9.84 3.97 5.83 7.02 8.76 9.13 8.76 2.8 0 4.2-2.93 4.2-8.76a36.4 36.4 0 0 0-5.96-20.37c-4.45-7.27-10.19-10.89-17.2-10.89-3.29 0-8.2 1.76-14.75 5.27-6.56 3.5-12.53 5.27-17.89 5.27-1.64 0-8.9-2.13-21.78-6.33 22.7-3.75 34.06-7.14 34.06-10.19 0-7.95-15.57-13.34-46.7-16.14-3.04-.22-8.65-.7-16.85-1.4.93-1.16 7.6-2.45 20.02-3.87 10.53-1.15 17.9-1.76 22.1-1.76 55.72 0 91.06 27.04 106.04 81.12 2.59-2.14 3.88-5.7 3.88-10.67 0-6.41-1.88-14.48-5.62-24.21-1.41-3.8-3.64-9.5-6.68-17.09 19.18 24.45 28.8 47.63 28.8 69.5 0 11.53-2.7 22-8.09 31.39-3.5 6.36-10.07 14.47-19.65 24.35-9.6 9.88-16.15 17.52-19.67 22.93 12.88-3.51 21.32-6.21 25.3-8.09 8.87-3.97 16.96-9.95 24.21-17.9 0 3.07-1.3 7.62-3.86 13.7zM158.53 90.47c0 4.22-2.34 6.9-7.02 8.1l-9.12 1.4c-3.3 1.62-8.09 8.07-14.4 19.3-.7-3.5-1.75-8.42-3.16-14.75-2.1.23-5.62 2.12-10.53 5.62-2.1 1.64-5.5 4.1-10.19 7.38 1.41-8.43 6.1-16.96 14.05-25.63 8.43-9.6 16.63-14.38 24.58-14.38 10.53-.01 15.8 4.32 15.8 12.96Zm61.1 32.32c0 3.96-2.17 7.32-6.5 10-4.34 2.7-8.6 4.05-12.81 4.05-5.63 0-10.67-3.15-15.1-9.5-5.4-7.7-10.89-12.74-16.51-15.1a5.74 5.74 0 0 1 4.22-1.75c2.1 0 5.67 1.63 10.7 4.9 5.02 3.3 8.24 4.93 9.65 4.93 1.17 0 3.1-1.63 5.8-4.92 2.68-3.28 5.66-4.9 8.95-4.9 7.74 0 11.6 4.1 11.6 12.29z"/>
</svg>