<svg xmlns="http://www.w3.org/2000/svg" viewBox="0 0 600 600">
  <circle cx="300" cy="300" r="300" fill="#cac5c0"/>
  <path d="m568.66 335.09-63.42 76.37-15.54-15.53c6.04-15.24 9.87-29.27 11.44-42.08 1.57-12.8.92-24.65-1.95-35.6a32.1 32.1 0 0 0-2.59-7.77 66.5 66.5 0 0 0-10.36-19.4c-4.6-6.07-11.2-13.39-19.84-22.02l-45.3-46.17-210.57 210.58c-18.42 18.4-28.35 34.37-29.78 47.87-1.45 13.54 5.18 27.63 19.85 42.31l6.05 5.17-16.4 16.39L52.18 407.14l16.39-16.4 6.9 6.9c14.38 14.96 28.33 21.73 41.85 20.28 13.52-1.43 29.35-11.23 47.47-29.35l210.99-211-47.03-47.02c-13.23-12.66-24.52-21.5-33.87-26.53-9.35-5.04-20.22-7.13-32.57-6.26a77.58 77.58 0 0 0-11.23.85c-3.74.3-7.05.71-9.92 1.3-2.88.58-5.61 1-8.2 1.3a14.4 14.4 0 0 1-5.18.85c-3.16.86-6.76 1.87-10.78 3.02a376.8 376.8 0 0 1-15.11 3.87l-14.24-15.1 74.64-65.15Z"/>
</svg>