<svg xmlns="http://www.w3.org/2000/svg" viewBox="0 0 600 600">
  <circle cx="300" cy="300" r="300" fill="#cac5c0"/>
  <path d="M296.33 566.36a49.84 49.84 0 0 1-70.44 0L33.63 374.11a49.85 49.85 0 0 1 0-70.46L303.67 33.62a49.84 49.84 0 0 1 70.45 0l192.26 192.26a49.82 49.82 0 0 1 0 70.44z"/>
  <path fill="#fff" d="M505.59 347.24H289.56l79.1-56.31c-29.38-23.32-63.39-34.97-101.9-34.97-19.26 0-32.48 3.67-39.53 11.02-7.12 7.36-10.66 20.65-10.66 39.92 0 53.24 27.37 110.04 82.13 170.38l-62.34 63.13C163.82 452.18 127.6 373.33 127.6 303.85c0-41.56 12.5-74.67 37.61-99.27 25.09-24.6 58.49-36.88 100-36.88 50.72 0 106 19.28 165.86 57.8l46.36-79.08z"/>
</svg>