<svg xmlns="http://www.w3.org/2000/svg" viewBox="0 0 600 600">
  <circle cx="300" cy="300" r="300" fill="#c1d7e9"/>
  <path d="M404.93 502.31c-28.72 29.23-64.1 43.85-106.13 43.85-47.17 0-84.59-16.14-112.27-48.44-26.15-30.76-39.22-69.97-39.22-117.64 0-51.26 22.3-109.71 66.9-175.34 36.39-53.82 79.2-100.98 128.41-141.48-7.18 32.81-10.75 56.13-10.75 69.97 0 31.8 9.98 62.8 29.97 93.05 24.61 35.88 43.32 62.55 56.14 79.97 20 30.25 30 59.73 30 88.42 0 42.56-14.35 78.44-43.05 107.64zm-.78-164.17c-7.68-17.16-16.66-28.57-26.91-34.22 1.53 3.09 2.3 7.44 2.3 13.08 0 10.77-3.06 26.15-9.23 46.14l-9.98 30.76c0 17.94 8.95 26.92 26.9 26.92 18.96 0 28.46-12.57 28.46-37.69 0-12.8-3.84-27.8-11.54-44.99z"/>
</svg>