<svg xmlns="http://www.w3.org/2000/svg" viewBox="0 0 600 600">
  <path fill="#e49977" d="M512.1 87.82c54.3 54.3 87.9 129.3 87.9 212.16C600 465.68 465.68 600 300 600c-82.84 0-157.83-33.58-212.12-87.88"/>
  <path fill="#c1d7e9" d="M87.88 512.12C33.58 457.84 0 382.82 0 300 0 134.3 134.32 0 300 0c82.81 0 157.8 33.56 212.1 87.82"/>
  <path d="M529.8 446.63c-10.3 24.6-30.78 36.88-61.44 36.88a87.1 87.1 0 0 0-18.26 2.1c-9.84 2.12-14.75 5.04-14.75 8.79 0 1.17.81 2.5 2.46 4.04 1.63 1.52 3.05 2.29 4.22 2.29-5.87 0-1.89.17 11.92.5 13.82.37 22.48.54 26 .54-20.37 11.94-54.42 17.44-102.18 16.5-15.68-.22-29.14-7.12-40.37-20.7-11.01-12.88-16.5-27.27-16.5-43.19 0-16.86 5.67-31.18 17.03-43.02 11.34-11.8 25.45-17.71 42.3-17.71 3.74 0 8.72.82 14.92 2.44 6.2 1.64 10.36 2.46 12.46 2.46 8.66 0 19.43-3.58 32.31-10.7 12.88-7.14 18.96-10.72 18.26-10.72-2.35 24.59-10.54 41.1-24.58 49.5-10.07 5.87-15.1 11.6-15.1 17.2 0 3.52 2.1 6.34 6.31 8.44a24.16 24.16 0 0 0 10.9 2.45c6.08 0 12.04-3.74 17.9-11.23 5.84-7.48 8.41-14.28 7.71-20.37-.7-7.03-.22-15.45 1.41-25.27.46-2.82 2.17-6.27 5.09-10.37 2.93-4.1 5.57-6.62 7.9-7.57 0 2.13-.76 5.64-2.28 10.54-1.52 4.92-2.28 8.56-2.28 10.88 0 5.16 1.4 9.14 4.22 11.94 4.2-1.62 7.94-6.9 11.23-15.8a64.14 64.14 0 0 0 4.92-19.65c-9.84-.46-19.26-4.92-28.26-13.36-9.01-8.42-13.52-17.55-13.52-27.38 0-1.62.23-3.28.7-4.91 1.4 2.12 3.5 5.4 6.32 9.84 3.98 5.85 7.02 8.78 9.13 8.78 2.8 0 4.21-2.93 4.21-8.78 0-7.5-1.99-14.28-5.97-20.37-4.46-7.27-10.2-10.88-17.2-10.88-3.29 0-8.2 1.75-14.75 5.26-6.56 3.5-12.53 5.27-17.9 5.27-1.63 0-8.9-2.12-21.77-6.32 22.7-3.75 34.06-7.14 34.06-10.2 0-7.95-15.57-13.34-46.7-16.13-3.05-.23-8.66-.7-16.86-1.4.93-1.17 7.61-2.45 20.02-3.87 10.53-1.15 17.9-1.76 22.11-1.76 55.71 0 91.05 27.04 106.04 81.13 2.58-2.15 3.87-5.7 3.87-10.68 0-6.4-1.87-14.47-5.62-24.2-1.41-3.8-3.65-9.5-6.68-17.1 19.19 24.46 28.8 47.64 28.8 69.5 0 11.54-2.7 22-8.09 31.4-3.5 6.35-10.07 14.46-19.66 24.35-9.6 9.87-16.14 17.52-19.66 22.93 12.88-3.52 21.3-6.21 25.29-8.08 8.88-3.99 16.96-9.96 24.22-17.91 0 3.06-1.3 7.63-3.86 13.68zM376.72 308.66c0 4.2-2.35 6.9-7.02 8.08l-9.13 1.4c-3.28 1.63-8.08 8.08-14.39 19.3-.71-3.5-1.76-8.4-3.17-14.73-2.1.22-5.6 2.1-10.53 5.61-2.1 1.64-5.5 4.1-10.19 7.38 1.41-8.42 6.1-16.96 14.05-25.63 8.43-9.59 16.62-14.38 24.58-14.38 10.53 0 15.8 4.32 15.8 12.97zm61.09 32.3c0 3.98-2.17 7.33-6.5 10.01-4.33 2.69-8.6 4.04-12.81 4.04-5.63 0-10.66-3.14-15.1-9.48-5.39-7.71-10.89-12.75-16.5-15.1a5.75 5.75 0 0 1 4.22-1.76c2.1 0 5.67 1.63 10.7 4.9 5.02 3.3 8.25 4.93 9.66 4.93 1.17 0 3.1-1.63 5.78-4.92 2.7-3.28 5.68-4.9 8.96-4.9 7.73 0 11.59 4.1 11.59 12.29zM246.7 288.93c-16.16 16.42-36.05 24.65-59.68 24.65-26.53 0-47.57-9.08-63.14-27.25-14.72-17.31-22.07-39.36-22.07-66.16 0-28.83 12.54-61.7 37.64-98.62a373.01 373.01 0 0 1 72.22-79.57c-4.04 18.46-6.06 31.57-6.06 39.35 0 17.88 5.61 35.34 16.87 52.34 13.84 20.18 24.37 35.18 31.57 44.98 11.25 17.01 16.87 33.6 16.87 49.72 0 23.96-8.08 44.12-24.22 60.56zm-.44-92.31c-4.32-9.67-9.36-16.09-15.13-19.27.87 1.73 1.3 4.18 1.3 7.37 0 6.06-1.73 14.7-5.2 25.94l-5.62 17.3c0 10.1 5.05 15.13 15.14 15.13 10.66 0 16-7.07 16-21.18 0-7.22-2.17-15.65-6.49-25.3z"/>
</svg>