<svg xmlns="http://www.w3.org/2000/svg" viewBox="0 0 600 600">
  <circle cx="300" cy="300" r="300" fill="#f8f6d8"/>
  <path d="M586.15 342.38c-39.37-22.19-64.61-33.3-75.7-33.3-8.07 0-14.38 6.19-18.93 18.55-4.55 12.38-13.62 18.54-27.25 18.54-5.55 0-16.9-2.02-34.06-6.05-9.6 14.64-14.4 23.98-14.4 28.01 0 5.56 4.14 12.1 12.4 19.69 8.24 7.57 15.2 11.34 20.88 11.34 3.62 0 8.5-.75 14.7-2.27 6.18-1.5 10.32-2.26 12.38-2.26 6.2 0 9.28 11.35 9.28 34.06 0 21.7-5.04 55.01-15.13 99.93-13.13-51.48-27-77.23-41.63-77.23-2.03 0-6.19 1.51-12.5 4.56-6.31 3.01-10.97 4.53-14 4.53-14.63 0-27.75-13.37-39.36-40.13-23.22 3.54-34.83 15.4-34.83 35.6 0 10.1 4.66 18.16 14.01 24.21 9.32 6.05 14 10.36 14 12.87 0 13.64-19.94 34.59-59.8 62.84a2770.3 2770.3 0 0 0-43.9 31.78c7.04-9.07 14.1-20.92 21.2-35.57 8.06-16.65 12.1-29.52 12.1-38.61 0-5.04-5.8-12.12-17.41-21.2-11.62-9.07-17.4-18.67-17.4-28.76 0-8.57 3.01-19.16 9.07-31.8-6.56-7.56-14.37-11.36-23.46-11.36-20.19 0-30.27 6.57-30.27 19.68v20.43c.5 16.66-12.12 24.99-37.86 24.99-19.68 0-52.75-4.56-99.17-13.63 52.5-13.13 78.73-28.26 78.73-45.42 0 2.02-1-4.03-3.02-18.17-2.03-15.62 9.08-29.76 33.3-42.37-4.55-23.2-16.64-34.84-36.34-34.84-3.02 0-8.6 5.3-16.65 15.88-8.08 10.63-15.64 15.91-22.7 15.91-12.12 0-27.77-13.11-46.93-39.37-9.1-13.1-22.98-32.55-41.65-58.3 11.6 6.08 23.22 12.13 34.83 18.2 15.14 7.05 27.25 10.59 36.35 10.59 7.06 0 14-6.19 20.81-18.55 6.81-12.37 15.77-18.56 26.87-18.56 1.53 0 11.62 3.03 30.29 9.1 9.57-14.63 14.38-25.49 14.38-32.56 0-6.06-3.66-13-10.98-20.82s-14-11.73-20.06-11.73c-2.53 0-6.43.75-11.74 2.27-5.29 1.51-9.2 2.28-11.72 2.28-9.1 0-13.64-11.36-13.64-34.07 0-6.06 5.82-40.62 17.43-103.71-.52 7.56 2.76 21.7 9.83 42.38 8.58 25.24 18.67 37.86 30.3 37.86 2 0 6.04-1.52 12.1-4.55 6.05-3.03 10.84-4.53 14.38-4.53 11.6 0 21.18 6.57 28.77 19.67l11.36 20.43c10.6 0 19.42-3.77 26.48-11.34 7.07-7.58 10.6-16.67 10.6-27.26 0-11.1-4.65-19.56-14-25.36-9.35-5.8-14.01-10.22-14.01-13.25 0-10.6 16.66-28.5 49.97-53.74 26.74-20.18 44.15-32.04 52.24-35.58-21.7 29.27-32.56 50.7-32.56 64.34 0 7.07 4.28 14.65 12.87 22.71 10.6 9.59 16.65 16.4 18.16 20.44 5.04 11.62 4.54 27.51-1.5 47.69 13.62 9.6 23.96 14.38 31.04 14.38 14.61 0 21.94-7.59 21.94-22.71 0-1.52-.63-6.31-1.88-14.38-1.28-8.06-1.64-12.61-1.15-13.63 2.02-7.06 15.9-10.6 41.64-10.6 16.14 0 49.7 4.54 100.68 13.63a61667.4 61667.4 0 0 0-49.95 13.62c-20.2 6.06-30.3 12.87-30.3 20.44 0 3.54 1.26 9.59 3.79 18.16 2.52 8.6 3.8 14.88 3.8 18.94 0 7.05-4.55 13.62-13.63 19.66l-25.74 18.19c6.06 11.1 10.09 17.67 12.12 19.67 5.04 6.05 11.85 9.08 20.43 9.08 6.06 0 11.6-5.3 16.65-15.88 5.04-10.61 13.13-15.9 24.22-15.9 13.62 0 29.03 12.62 46.19 37.86 9.55 14.16 24.45 35.6 44.64 64.36zm-168.05-43.9c0-32.28-11.87-60.3-35.59-84.03-23.72-23.72-51.72-35.58-84.02-35.58-32.82 0-61.08 11.74-84.79 35.22-23.72 23.46-35.84 51.6-36.33 84.4-.51 32.29 11.47 60.17 35.95 83.62 24.48 23.47 52.87 35.21 85.16 35.21 34.32 0 62.95-11.23 85.91-33.69 22.98-22.44 34.2-50.82 33.71-85.14zm-11.35 0c0 30.8-10.35 56.3-31.05 76.45-20.7 20.2-46.44 30.3-77.21 30.3-29.78 0-55.27-10.35-76.45-31.05-21.19-20.67-31.8-45.91-31.8-75.7 0-29.25 10.71-54.38 32.16-75.31 21.46-20.94 46.81-31.43 76.09-31.43 29.26 0 54.62 10.6 76.08 31.8 21.44 21.2 32.18 46.18 32.18 74.95z"/>
</svg>