<svg xmlns="http://www.w3.org/2000/svg" viewBox="0 0 600 600">
  <path fill="#bab1ab" d="M512.1 87.82c54.3 54.3 87.9 129.3 87.9 212.16C600 465.68 465.68 600 300 600c-82.84 0-157.84-33.58-212.13-87.88"/>
  <path fill="#f8f6d8" d="M87.88 512.12C33.58 457.84 0 382.82 0 300 0 134.3 134.32 0 300 0c82.82 0 157.8 33.56 212.1 87.82"/>
  <path d="M537.72 395.94c0 16.2-5.9 27.26-17.68 33.15-3.45 1.72-14.25 4.07-32.43 7-11.77 1.97-17.67 6.51-17.67 13.62v29.84c0 1.25.37 5.05 1.1 11.43l1.12 11.8c0 3.67-.87 9.7-2.59 18.04-4.66.98-10.07 2.1-16.2 3.33-1.97-7.38-2.95-12.41-2.95-15.12 0-1.21.3-3.07.92-5.52.61-2.44.92-4.3.92-5.54 0-1.7-1.52-6.5-4.57-14.36h-5.72c-.75 1.23-1 2.83-.76 4.78.98 4.18 1.35 7.74 1.12 10.69a861.8 861.8 0 0 1-17.31 11.79c-1.74-.5-2.34-.74-1.85-.74v-26.15c-.49-1.22-1.71-1.71-3.69-1.48h-4.42l-4.42 34.63c-3.44.24-7.6.24-12.52 0-1.72-8.1-4.79-20.13-9.2-36.1h-2.96c-2.7 8.6-4.17 13.26-4.43 14 0 .98.32 2.87.93 5.7.62 2.84.92 4.73.92 5.71a48 48 0 0 1-.75 5.53l-1.1 8.85c-.5.47-1.1.72-1.84.72-7.37 0-12.29-1.84-14.73-5.52-2.47-3.69-3.45-8.85-2.96-15.48l2.96-44.19c0-.74.24-1.72.73-2.95.49-1.22.74-2.09.74-2.57 0-1.97-2.1-5.9-6.26-11.8-.74-.25-4.54-1.12-11.43-2.6-4.17-.96-12.4-2.69-24.67-5.13-16.95-3.19-25.43-16.82-25.43-40.89 0-35.87 14.75-65.7 44.2-89.52 1.23 6.64 3.33 15.47 6.28 26.52l14.36 3.33c1.48.48 8.96 3.19 22.47 8.1-6.87-4.17-15.84-10.9-26.88-20.25-4.18-4.9-6.28-13.14-6.28-24.68 0-2.7 4.67-5.89 14.01-9.6 8.35-3.43 14.6-5.37 18.79-5.87 13.25-1.72 23.45-2.59 30.58-2.59 30.69 0 55.5 7.87 74.4 23.6-6.13 7.12-16.7 14.71-31.67 22.83 5.89.25 14.49-2.08 25.79-7 11.29-4.9 16.08-7.37 14.36-7.37 1.96 0 5.9 3.93 11.79 11.79 4.4 5.89 7.97 11.17 10.68 15.84 7.86 14 13.14 29.11 15.85 45.3 0 5.66.12 9.71.36 12.16v2.94zm-141.1 6.65c0-10.57-4.6-20.58-13.8-30.04-9.22-9.46-19.12-14.18-29.67-14.18-9.33 0-17.55 3.96-24.67 11.87-7.13 7.91-10.68 16.7-10.68 26.34 0 8.4 4.05 13.85 12.15 16.31 5.16 1.5 12.4 2.36 21.73 2.6h20.26c16.46.22 24.68-4.08 24.68-12.9zm40.16 45.67v-11.4a397.6 397.6 0 0 1-5.15-9.97c-1.47-4.9-4.18-11.78-8.1-20.63l-4.06 43.1c0 3.46-.73 5.17-2.21 5.17-.98 0-1.72-.24-2.21-.74-1.72-26.03-2.57-37.33-2.57-33.88v-12.88c-.5-.76-1.11-1.13-1.85-1.13-8.35 8.62-12.52 22.49-12.52 41.63 0 10.56.98 17.07 2.94 19.54 1.98-.5 4.17-1.36 6.64-2.59.98-.5 3.8-.74 8.46-.74 4.65 0 10.32 1.47 16.94 4.41 2.47-.01 3.7-6.63 3.7-19.9zm83.26-51.34c0-9.87-3.69-18.71-11.05-26.5-7.37-7.79-15.84-11.68-25.4-11.68-10.33 0-19.98 4.73-28.93 14.17-8.97 9.46-13.46 19.34-13.46 29.67 0 8.6 4.19 12.88 12.53 12.88h42.36c15.97-.24 23.95-6.4 23.95-18.54zM328 229.58c-14.61-13.58-24.32-20.95-29.09-22.1-3.46-.83-6.8 1.19-10.03 6.04-3.22 4.85-7.75 6.57-13.6 5.15-2.39-.57-7.06-2.6-14-6.1-5.63 5.31-8.65 8.83-9.07 10.55-.57 2.38.53 5.63 3.3 9.74 2.76 4.1 5.36 6.42 7.8 7 1.55.38 3.74.56 6.55.54 2.8 0 4.66.1 5.55.31 2.67.63 2.82 5.83.48 15.58-2.22 9.31-7.82 23.12-16.77 41.36-.35-23.45-3.65-35.93-9.93-37.43-.87-.21-2.81.01-5.83.66-3.03.64-5.18.83-6.48.52-6.29-1.5-10.55-8.6-12.79-21.28-10.33-.87-16.54 3.03-18.61 11.7-1.04 4.34.14 8.29 3.53 11.84 3.38 3.56 4.94 5.89 4.7 6.96-1.4 5.87-12.13 12.8-32.13 20.85a1317.34 1317.34 0 0 0-22.13 9.14c3.95-3.17 8.21-7.55 12.76-13.11 5.17-6.32 8.23-11.43 9.16-15.35.52-2.14-1.24-5.79-5.3-10.88-4.05-5.1-5.55-9.8-4.51-14.12.87-3.7 3.26-7.93 7.16-12.74-2.04-3.92-5-6.35-8.9-7.28-8.67-2.09-13.68-.3-15.03 5.34l-2.1 8.79c-1.5 7.18-7.77 9.46-18.82 6.83-8.46-2.02-22.18-7.37-41.19-16.03 23.9-.25 36.72-4.05 38.47-11.43-.19.88 0-1.84.58-8.11.74-6.91 6.96-11.86 18.65-14.79.44-10.41-3.56-16.65-12.02-18.66-1.3-.33-4.24 1.37-8.78 5.1-4.56 3.72-8.36 5.22-11.39 4.5-5.2-1.25-10.57-8.49-16.1-21.73-2.56-6.58-6.52-16.34-11.9-29.31 4.37 3.79 8.73 7.6 13.1 11.38 5.77 4.6 10.61 7.35 14.5 8.29 3.04.72 6.66-1.21 10.86-5.84 4.18-4.6 8.67-6.34 13.44-5.2.66.15 4.68 2.49 12.07 7.02 5.62-5.3 8.8-9.46 9.53-12.5.6-2.6-.24-5.95-2.59-10.07-2.33-4.11-4.81-6.47-7.41-7.11a20.62 20.62 0 0 0-5.26-.23c-2.44.11-4.2.04-5.28-.23-3.9-.93-4.68-6.27-2.35-16.02.61-2.62 6.67-16.85 18.13-42.75-1 3.19-1.03 9.6-.12 19.23 1.09 11.72 4.12 18.14 9.1 19.36.87.2 2.76-.03 5.68-.72 2.9-.67 5.12-.84 6.63-.47 4.98 1.2 8.42 5 10.33 11.4l2.78 9.95c4.54 1.09 8.73.37 12.53-2.15a17.03 17.03 0 0 0 7.36-10.62c1.14-4.75 0-8.87-3.4-12.33-3.42-3.45-4.98-5.83-4.65-7.13 1.08-4.55 10.08-10.52 26.97-17.92 13.56-5.93 22.25-9.24 26.09-9.92-12.32 10.35-19.2 18.42-20.59 24.28-.72 3.04.34 6.74 3.19 11.09 3.57 5.2 5.47 8.75 5.7 10.63.97 5.52-.88 12.29-5.54 20.33 4.86 5.52 8.81 8.63 11.86 9.37 6.26 1.5 10.2-1 11.75-7.5.16-.65.38-2.77.67-6.36.27-3.61.59-5.6.9-5.99 1.6-2.82 7.92-2.9 18.98-.27 6.93 1.67 20.87 7.06 41.83 16.2l-22.86.72c-9.29.52-14.32 2.42-15.11 5.67-.35 1.51-.44 4.24-.24 8.18.2 3.94.1 6.79-.31 8.51-.72 3.04-3.35 5.38-7.87 7.06l-12.94 5.15c1.48 5.4 2.52 8.63 3.19 9.69 1.55 3.13 4.16 5.13 7.84 6.01 2.6.63 5.53-1.08 8.8-5.12 3.24-4.03 7.26-5.47 12.03-4.34 5.85 1.4 11.16 8.4 15.95 21 2.64 7.06 6.83 17.8 12.55 32.22zm-67.65-36.12c3.31-13.87 1.1-27.13-6.65-39.74-7.75-12.63-18.56-20.6-32.42-23.9-14.1-3.39-27.44-1.26-40.03 6.4-12.58 7.62-20.68 18.46-24.27 32.5-3.54 13.81-1.26 27.03 6.85 39.62 8.1 12.58 19.08 20.54 32.96 23.86 14.73 3.52 28.19 1.64 40.35-5.63 12.15-7.3 19.89-18.34 23.21-33.11zm-4.88-1.17c-3.16 13.22-10.22 23.11-21.18 29.63-10.96 6.56-23.06 8.24-36.27 5.08-12.78-3.06-22.66-10.13-29.64-21.19-6.97-11.05-8.93-22.96-5.87-35.77 3.02-12.57 10.19-22.25 21.55-29.04 11.38-6.78 23.34-8.66 35.9-5.66 12.56 3 22.37 10.16 29.4 21.46 7.02 11.32 9.07 23.12 6.1 35.49z"/>
</svg>