<svg xmlns="http://www.w3.org/2000/svg" viewBox="0 0 600 600">
  <path fill="#c1d7e9" d="M512.1 87.82c54.3 54.3 87.9 129.3 87.9 212.16C600 465.68 465.68 600 300 600c-82.84 0-157.84-33.58-212.13-87.88"/>
  <path fill="#f8f6d8" d="M87.88 512.12C33.58 457.84 0 382.82 0 300 0 134.3 134.32 0 300 0c82.82 0 157.8 33.56 212.1 87.82"/>
  <path d="M460.33 502.05c-16.16 16.43-36.04 24.65-59.67 24.65-26.54 0-47.58-9.09-63.15-27.24-14.72-17.3-22.06-39.35-22.06-66.17 0-28.83 12.54-61.69 37.63-98.6a372.49 372.49 0 0 1 72.22-79.6c-4.03 18.46-6.06 31.58-6.06 39.37 0 17.89 5.61 35.32 16.88 52.33 13.83 20.2 24.36 35.19 31.56 44.98 11.25 17 16.88 33.6 16.88 49.73 0 23.94-8.09 44.13-24.23 60.55zm-.42-92.33c-4.34-9.65-9.38-16.08-15.15-19.25.87 1.73 1.3 4.19 1.3 7.36 0 6.06-1.72 14.72-5.19 25.94l-5.62 17.31c0 10.08 5.04 15.13 15.14 15.13 10.66 0 16-7.06 16-21.19 0-7.2-2.16-15.65-6.48-25.3zM328 229.58c-14.61-13.58-24.32-20.95-29.09-22.1-3.46-.83-6.8 1.19-10.03 6.04-3.22 4.85-7.75 6.57-13.6 5.15-2.39-.57-7.06-2.6-14-6.1-5.63 5.31-8.65 8.83-9.07 10.55-.57 2.38.53 5.63 3.3 9.72 2.76 4.11 5.36 6.44 7.8 7.02 1.55.38 3.74.56 6.55.54 2.8 0 4.66.1 5.55.31 2.67.62 2.82 5.83.48 15.58-2.22 9.31-7.82 23.12-16.77 41.36-.35-23.45-3.65-35.93-9.93-37.43-.87-.21-2.81.01-5.83.66-3.03.64-5.18.83-6.48.52-6.29-1.51-10.55-8.6-12.79-21.28-10.33-.87-16.54 3.03-18.61 11.7-1.04 4.34.14 8.29 3.53 11.84 3.38 3.56 4.94 5.88 4.7 6.96-1.4 5.87-12.13 12.8-32.13 20.85a1294.02 1294.02 0 0 0-22.13 9.13c3.95-3.16 8.21-7.54 12.76-13.1 5.17-6.34 8.23-11.43 9.16-15.35.52-2.15-1.24-5.8-5.3-10.89-4.05-5.1-5.55-9.8-4.51-14.12.87-3.69 3.26-7.92 7.16-12.73-2.04-3.92-5-6.36-8.9-7.29-8.67-2.08-13.68-.3-15.03 5.35l-2.1 8.77c-1.5 7.2-7.77 9.48-18.82 6.85-8.46-2.03-22.18-7.37-41.19-16.04 23.9-.24 36.72-4.05 38.47-11.42-.2.88 0-1.84.58-8.11.74-6.92 6.96-11.86 18.65-14.79.44-10.43-3.56-16.65-12.02-18.68-1.3-.31-4.24 1.39-8.78 5.12-4.56 3.72-8.36 5.22-11.39 4.48-5.2-1.23-10.57-8.47-16.1-21.71-2.56-6.58-6.52-16.34-11.9-29.31 4.37 3.79 8.73 7.6 13.1 11.38 5.77 4.6 10.61 7.35 14.5 8.29 3.04.72 6.66-1.23 10.86-5.84 4.18-4.61 8.67-6.35 13.44-5.2.66.15 4.68 2.49 12.07 7.02 5.62-5.3 8.8-9.46 9.53-12.5.6-2.62-.25-5.95-2.59-10.07-2.33-4.11-4.81-6.47-7.41-7.11a20.62 20.62 0 0 0-5.26-.23 21 21 0 0 1-5.28-.23c-3.9-.93-4.68-6.27-2.35-16.03.61-2.6 6.67-16.85 18.13-42.74-1 3.19-1.03 9.6-.12 19.22 1.08 11.72 4.12 18.15 9.1 19.37.87.2 2.76-.03 5.67-.72 2.91-.67 5.12-.84 6.64-.47 4.97 1.2 8.42 5 10.33 11.4l2.77 9.95a15.3 15.3 0 0 0 12.54-2.15 17 17 0 0 0 7.36-10.62c1.13-4.77 0-8.87-3.4-12.33-3.43-3.45-4.98-5.83-4.66-7.13 1.09-4.55 10.08-10.52 26.97-17.93 13.56-5.91 22.26-9.23 26.1-9.91-12.33 10.35-19.2 18.42-20.59 24.28-.73 3.04.33 6.74 3.19 11.09 3.57 5.2 5.47 8.75 5.7 10.63.97 5.52-.88 12.28-5.55 20.33 4.87 5.52 8.82 8.63 11.86 9.37 6.27 1.5 10.2-1 11.75-7.5.16-.65.38-2.77.67-6.37.28-3.6.6-5.59.91-5.98 1.6-2.82 7.92-2.91 18.97-.27 6.94 1.67 20.88 7.06 41.83 16.2-5.07.15-12.7.39-22.85.72-9.3.52-14.33 2.41-15.11 5.66-.36 1.52-.45 4.24-.24 8.18.2 3.94.1 6.8-.32 8.52-.72 3.04-3.35 5.38-7.86 7.06l-12.94 5.15c1.48 5.38 2.52 8.63 3.19 9.69 1.55 3.12 4.15 5.12 7.84 6.01 2.6.63 5.53-1.08 8.79-5.12 3.25-4.03 7.27-5.47 12.03-4.34 5.85 1.4 11.17 8.39 15.95 21 2.65 7.04 6.84 17.8 12.55 32.22zm-67.65-36.13c3.31-13.87 1.1-27.12-6.65-39.73-7.75-12.63-18.56-20.6-32.42-23.92-14.1-3.37-27.44-1.24-40.03 6.41-12.58 7.63-20.68 18.47-24.27 32.5-3.54 13.82-1.26 27.04 6.85 39.62 8.1 12.6 19.08 20.56 32.96 23.88 14.73 3.52 28.19 1.65 40.35-5.65 12.15-7.28 19.89-18.33 23.21-33.1zm-4.88-1.16c-3.16 13.22-10.22 23.11-21.18 29.63-10.96 6.54-23.06 8.24-36.27 5.08-12.78-3.06-22.66-10.13-29.64-21.19-6.97-11.05-8.93-22.96-5.87-35.77 3.02-12.57 10.19-22.25 21.55-29.04 11.38-6.78 23.34-8.67 35.9-5.66 12.56 3 22.37 10.16 29.4 21.46 7.02 11.32 9.07 23.12 6.1 35.49z"/>
</svg>