<svg xmlns="http://www.w3.org/2000/svg" viewBox="0 0 600 600">
  <circle cx="300" cy="300" r="300" fill="#cac5c0"/>
  <path d="M339.85 480v-19.78c28.21-3.13 42.35-11.32 42.35-24.5 0-9.49-3.77-18.98-11.3-28.47l-78.05-96.06-61.63 72.67c-15.42 17.83-23.18 32.59-23.18 44.12 0 17.86 14.12 28.63 42.42 32.32V480h-150.3v-19.72c19.02-3.66 35.2-10.51 48.6-20.5 9.24-7.34 21.83-20.22 37.71-38.63l92.7-107.49-107.2-129.96c-13.9-16.78-24.73-27.8-32.41-33.06-10.34-7.35-24.73-12.07-43.22-14.16V96h177.24v19.71c-26.72 5.26-40.06 13.4-40.06 24.44 0 7.38 3.56 15.52 10.76 24.44l70.9 85.93 57.04-70.15c10.27-12.62 15.42-23.64 15.42-33.12 0-15.77-12.63-26.04-37.8-30.77V96H490.9v19.75c-12.33 2.63-20.84 5-25.38 7.12-15.42 7.38-38.98 29.22-70.78 65.52-5.12 5.82-26.72 32.36-64.74 79.71l113.86 140.18c24.68 30.47 49.83 47.83 75.52 52V480Z"/>
</svg>