<svg xmlns="http://www.w3.org/2000/svg" viewBox="0 0 600 600">
  <circle cx="300" cy="300" r="300" fill="#cac5c0"/>
  <path d="M446.13 480H123.57v-16.27L379.38 120.4H265.51c-18.71.38-33.1 2.34-43.2 5.88-10.1 3.57-19.46 10.38-28.05 20.48-.75.76-1.4 1.5-1.97 2.25a18 18 0 0 1-1.96 2.23 96.74 96.74 0 0 1-4.21 5.9 52.16 52.16 0 0 0-3.64 5.33 14.34 14.34 0 0 1-1.68 3.37l-2.25 3.37a70.4 70.4 0 0 1-2.8 7 524.62 524.62 0 0 0-3.92 8.7l-20.2-.56V97.4h306.29v15.14L199.88 457H311.5c16.83.38 30.2 0 40.1-1.13a96.64 96.64 0 0 0 27.78-7.28c1.12-.37 2.14-.75 3.08-1.12a32.3 32.3 0 0 0 2.53-1.13 123.44 123.44 0 0 0 15.14-8.98 135.3 135.3 0 0 0 14.59-11.78c3.36-3.37 6.73-7 10.1-10.93a333.1 333.1 0 0 0 10.66-13.18l14.58-20.77h21.31z"/>
</svg>