<svg xmlns="http://www.w3.org/2000/svg" viewBox="210.8 45.7 412.3 727">
  <path fill="#151515" fill-rule="evenodd" d="M558 46.1c-6.5.7-16.2 4-18.9 6.4-1 1-.4 1.2 3.2.8a51 51 0 0 1 24.7 5.9 57.6 57.6 0 0 1 24.6 31.6c2.5 8 3 22 1 30.4-4 16.4-11 25.7-27.3 36.4-13.4 8.8-21.6 16.6-26 25a54 54 0 0 0 .2 50.9l2.4 4v-6c.2-15.4 5.7-29 16.1-39.5 5.4-5.4 9-7.8 21-14 21.3-11.1 31.5-21.4 38.8-39.2a73 73 0 0 0-6-66.5 25.7 25.7 0 0 1-2.9-5 87.3 87.3 0 0 0-17.6-14.5 55.4 55.4 0 0 0-33.4-6.7M345.5 65c-9.3.8-9.8 1-23 10.9-12.7 9.4-13.4 10.4-13.5 17 0 4 5.7 58.7 10.5 100.8.7 6 3.6 11 7 12.4 3.3 1.2 163.3.1 165.7-1.2 3.7-1.9 5-6.7 6.3-23.8l1-10.5a8140.8 8140.8 0 0 1 5.5-59c2.4-24.4 2.4-22.7-.2-26.3a108.6 108.6 0 0 0-24.3-17.9l-5-2.7-61-.2c-33.6-.1-64.6.1-69 .5m-.7 17.7c-2.7 1.4-2.7 1.5-2.1 9.7.3 4.5 1 8.5 1.6 8.8.5.4.5.8-.2 1-.8.3-.7 6.6.4 22.9 2 30.4 2.5 36 3.6 36 1 0 1-33.7 0-62.2l-.6-17.6-2.7 1.4m123.4 3.2c.2 1.5 0 10.6-.5 20.2-1.4 35-1.7 54-.8 54 1.1 0 2.2-4.4 2-8.5 0-1.7.7-10.9 1.5-20.5 2.1-25.3 3-42.4 2.2-45.4-1-3.8-4.7-3.6-4.4.2m-68.8-.4A30 30 0 0 0 381 95.7a37.5 37.5 0 0 0-8.7 23.3l-.9 16c-.6 11.3.6 15.4 5.3 18.4 2 1.3 5.5 3 7.6 3.6l3.9 1.3-.5 11c-.6 12.3-.5 13.3 2.2 14.7 3.5 1.9 5 .2 5-5.6 0-4.7.2-5.4 2-5.4 1.7 0 2 .7 2 4.8 0 2.6.5 5.3 1.2 6 1.4 1.4 4.2 1.6 3.3.2-.3-.6 0-.7 1-.4 1.2.5 1.5-.3 1.5-5 0-3 .4-5.6 1-5.6h1.8c.4 0 1 2.6 1.2 5.7.4 5 .8 5.8 2.7 6.1 2.7.4 4.3-2.8 4.3-8.4 0-2.7.4-3.4 2-3.4 1.7 0 2 .7 2 4.9 0 6 1.8 8 5.7 6.2l2.6-1.2-.7-11.2c-.3-6.2-.3-11.7.1-12.4a30 30 0 0 1 6.3-3.6c10.3-4.8 11.7-7.4 10-18-.7-4-1-9.6-.6-12.9A37.5 37.5 0 0 0 429.2 90c-7.8-5.1-19.3-7-29.8-4.6M389 123.7c-2.5 1-6.8 5.4-8 8.4-2.6 6 1.8 13.8 8.7 15.5 3.5 1 8.9-1.9 11.3-5.8 3.5-5.7 2-15.2-3-17.8-2-1-6.5-1.2-9-.3m29 .6c-7.3 5.7-6.2 16.6 2.2 21.7 4.9 3 7.5 2.5 12-1.9 3.2-3.3 3.8-4.5 3.8-8.1 0-3.7-.6-4.8-4.4-8.6-3.6-3.7-5-4.4-8.2-4.4-2.2 0-4.6.6-5.4 1.3m-11.2 19.4a27.3 27.3 0 0 0-5.8 13.8v3.5h15v-3.5c0-4.2-1.9-8.9-5.2-12.8-2.2-2.8-2.4-2.8-4-1m59.2 22.9c0 2 .4 3.3 1 2.9.6-.3 1-2 1-3.6s-.4-2.9-1-2.9-1 1.6-1 3.6M340.5 214c-21.7.6-23.3 1-25.3 7.8a47.2 47.2 0 0 0 .2 21.7c2.8 6.5-1.6 6.2 92.6 6.6 80.4.4 85.7.3 88.3-1.4 4.4-2.9 5.8-6 6.4-14.6.5-6.7.3-8.6-1.5-12.3-4.2-8.6.3-8-75-8.2-36.7 0-75.3.1-85.7.4m5.7 11.3c-3.3 3.5-3.9 8-1.3 10.6 1.2 1.2 3 2.1 4.1 2.1 1.8 0 2-.7 2-5.8 0-3.1-.7-6.5-1.4-7.4-1.2-1.6-1.4-1.6-3.4.5m18.6 30.5c-3.1.4-3 0-3.3 14.2 0 5.3-.8 9.9-1.7 12.2-1.7 3.8-2.7 4.8-26 27.7A95.7 95.7 0 0 0 319 326c0 1.8 1.3 1.9 23.3 1.9 12.9 0 46.4-.3 74.5-.7l51.2-.6v-2.2c0-2.2-1.4-5.2-9.2-19.3-2.2-4-3.7-7.6-3.4-8 .6-.6 17 16.4 21.6 22.4 4.7 6.1 8.8 7 34 7.8l30.5 1.1a1562.7 1562.7 0 0 1 38 2.3c1.5.2 1.6.4.6 1.4-1 1-29.6 1.4-134.9 1.6-101.3.3-133.9.6-134.4 1.5-1.1 1.7-1 57.4.2 62.2 1.9 8.2-9.3 7.5 123.1 7.5 68.3 0 117.9.4 117.9.9s-1.7 1.2-3.8 1.5c-2 .3-62.8.9-135 1.2-120.5.6-131.2.5-131.2-1 0-.9-.4-1.6-1-1.6s-1 .5-1 1.2c0 1.4-36.9.3-38.4-1.2-1.1-1.1 8.3-1.4 38-1 18.6.2 19.3 0 21.4-2 2.2-2.2 2.2-2.4 1.7-34-.3-23.4-.8-32.4-1.7-33.5-1-1.2-6-1.5-31.3-1.7-21.5-.2-30.1-.6-30.4-1.4-.5-1.5 5.3-2.2 22.2-2.9 33.8-1.3 38-1.6 42-3.6 5.7-2.6 42.7-39.1 45-44.4a59.7 59.7 0 0 0 2.7-21.8l-.3-3.7h-17.6l-.7 7.1c-1.4 15.3-6 19.5-29.4 26.8-31.7 10-77 25-79.9 26.5a33 33 0 0 0-6 4.8c-6.2 6.4-6.3 7.2-6.3 45.4 0 39.9-.4 38.2 9.5 48.9 3.1 3.3 6.8 7.5 8.3 9.4l2.7 3.4v217.4l-3 3.9-8.8 10.8a58 58 0 0 0-7.4 10.4c-2 5-2 70 .1 74 1.9 3.6 15.7 16.8 22 20.9a30 30 0 0 0 10 4.2c11 2.2 94 3.4 190.6 2.7 52.5-.4 104.7-1 116-1.5 19.7-.7 20.7-.9 26-3.6a87 87 0 0 0 25.3-24.5c2-4.3 2-6.3 2-37.7-.2-38.3.4-35.7-10.4-47a53 53 0 0 1-8.5-10.8c-1.3-3.1-1.5-13-1.7-69.8-.1-36.4 0-85.1.3-108.2.6-47.7-.4-42.7 10.2-54.4 10.1-11.2 9.8-9.5 9.8-49.4 0-33.3 0-35-2.1-39.2-4.2-9-8.2-11.3-33-19.3A3294 3294 0 0 0 523 293c-25.2-7.6-27.3-8.5-32.4-13-4.3-3.7-6.4-8.8-7.2-17.3l-.7-6.7h-3.6l-57.7-.3-56.8.1M536 355.6a47 47 0 0 0-1 10.9c0 9.6 1.1 13.5 3.9 13.5 2.2 0 3.1-3.4 3.1-12.6 0-6.3-2.3-14.4-4.1-14.4-.5 0-1.4 1.2-2 2.6M562 406c0 1.2 6.7 1.2 9.5 0 1.4-.6.4-.9-3.8-1-3.2 0-5.7.4-5.7 1m-262.5 26.8c-7 .4-8 1-9.4 5-.8 2-2.5 5.4-4 7.5A47.2 47.2 0 0 1 268 459l-3.9 1.2.2 79.3.2 79.4 5.5 2.7a37.4 37.4 0 0 1 20 23.6c.7 2 2.2 4.2 3.3 4.8 1.6.8 27.5 1 94.7.5l113.8-.6h21.1l1.8-5.3a36.7 36.7 0 0 1 19-21.8l7.1-4 .2-78.9c.2-77.8.2-78.9-1.8-80-1-.5-2.7-1-3.6-1a5 5 0 0 1-2.8-1l-5.6-4.2a47 47 0 0 1-13.1-18.4l-1.2-3.5-109.7.3c-60.3.2-111.4.4-113.6.6m56.3 13-51.6.2-3 5.3a60.9 60.9 0 0 1-20 19.1l-4.2 1.9v134.6l5.3 3.4a57 57 0 0 1 21.2 25.6l.6 2.1h205.5l3-6.2a62.4 62.4 0 0 1 20.4-21.9l4.5-2.4.3-67.2.2-67.1-5.4-3a56 56 0 0 1-18.7-18.8l-3-5.4h-50.4c-27.7 0-51-.1-51.7-.3h-53m-13.7 21.5c-3 5-6.8 12.3-8.5 16.2-2.9 6.6-3 7.9-3 18.6 0 11 .2 12.1 5.1 27 5.5 16.5 7.8 27 8.7 38.8.6 7.2.6 7.3-1.6 7-2.1-.3-2.4-1-3-8.3-1-10.9-4-20-9-27.5-4.9-7.4-10-11.4-16.8-13-6-1.4-10.4-.6-14.8 2.7-8.5 6.4-11 23.7-4.5 31.3 2.4 3 9 7 11.3 7 .5 0 1-2.3 1-5.3 0-7.8 3.8-12.6 9.9-12.7 8.8 0 16.1 9 16.1 20.1v5.8l-4.6.3c-3.6.2-4.8.8-6.1 2.9-1.4 2.4-1.4 2.8.2 5.2 1.6 2.6 2.1 2.7 10.1 2.7s8.4 0 8.4 2.3c0 3.7-3.6 10.2-7 13-3.3 2.5-3.3 2.6-1.6 5.1 1.1 1.8 2.5 2.6 4.4 2.6 2.5 0 3.3.9 6.8 7.5 2.1 4.1 4.3 7.5 4.9 7.5.6 0 2.8-3.4 5-7.5 3.5-6.9 4.1-7.5 7-7.5 2.2 0 3.5-.7 4.6-2.6 1.6-2.6 1.6-2.8-2.6-6.8-4-3.9-7.2-10.7-5.9-12.8.3-.4 4-.8 8.3-.8 7.4 0 8-.1 9.6-2.7 1.6-2.4 1.6-3 .4-5.2-1.2-2.2-2.3-2.6-6.8-3l-5.4-.2.5-6.4c1-10.9 6.4-18.1 14.6-19.2 3.8-.5 4.5-.2 7.8 3 3.4 3.5 3.6 4 3.2 9.3l-.3 5.6 3-.6a21 21 0 0 0 11.5-9.2c1-1.8 1.5-5.8 1.5-10.4 0-6.4-.4-8.3-2.8-12.6-3.5-6.3-8.5-9.4-15.3-9.4-15.5 0-27.7 17.3-30.2 42.6-.6 5.4-1 7-2.4 7.2-1.6.3-1.8-.5-1.8-6 0-10 2.7-23 8.2-39.3 5-14.6 5.2-15.3 5.2-27 0-10.9-.2-12.6-2.6-18.4-2.5-6-10-19.1-13.6-23.8-1.7-2.2-1.7-2.2-7.1 7m120.4 10.9c-2.6 9-5 16.5-5 16.6-.2.2-2.7-1.5-5.7-3.9l-5.3-4.2-.3 3.2a142 142 0 0 0 5.6 29.8c1 3.4 1.7 6.4 1.5 6.7-.3.3-4.6-3-9.6-7.1l-9.2-7.6-.6 3.2c-.4 1.8-.9 3.4-1.2 3.7-.3.3-4.2-1.3-8.7-3.6-4.5-2.3-8.3-4-8.5-3.8-.1.2 1.7 5.5 4 11.8a101 101 0 0 1 4.5 13.2c0 1.1-1 2-2.8 2.4-4.7 1-5.4 1.4-5 2.7.3.6 5.6 5 11.8 9.8 6.3 4.7 11.6 9 11.8 9.7.3 1-2.5 3.4-12.4 10.9-2.2 1.7-2.6 2.4-1.6 3a190 190 0 0 0 30.6 4.9l7.9.7-.7 5.8c-.8 8.4-4.7 15.4-10.1 18.7-3.4 2-4.4 3.3-4.5 5.3 0 2.1.6 2.8 2.7 3.2 5.7 1 15.8-12.5 19.4-26.3l1.6-6.5 6.4-.8c14-1.7 28.5-3.8 31.3-4.5l2.8-.8-4.3-2.8a48 48 0 0 1-12.9-10.7 43 43 0 0 1 8-6.9c12-8.8 17-13.1 16.5-14-.2-.4-2.2-1-4.4-1.4-2.2-.3-4.2-1-4.5-1.4-.2-.4 1.3-6 3.4-12.6 2.1-6.5 3.3-11.5 2.7-11.3-10 4.3-14 5.7-14.8 5.2-.5-.4-.9-2-.9-3.6s-.3-2.9-.6-2.9a90 90 0 0 0-8.7 7.5 52.5 52.5 0 0 1-9.3 7.5c-.8 0-.6-2 .8-6.3 4.3-13.9 6.4-31.7 3.7-31.7-.5 0-2.7 1.1-4.7 2.5s-4 2.5-4.4 2.5a18 18 0 0 1-2.3-5.8c-2.8-10-7.7-24.7-8.4-25.5a68 68 0 0 0-5.6 15.5m4 21a550 550 0 0 0-1.4 31l-.6 24.7-7.5-6.5c-10-8.8-25.6-20.4-27.2-20.4-.8 0-.6.5.4 1 1 .6 1.8 1.8 1.8 2.5 0 .8.6 1.5 1.3 1.5a41 41 0 0 1 8.7 7.8l16.7 17.4 9.4 9.8 10.2-10.8 18.4-19.1a60 60 0 0 0 7.9-8.9 40 40 0 0 0-8 5.2 50.9 50.9 0 0 1-9.6 6.4c0 .8-14.4 13.2-15.3 13.2-.3 0-.6-8.8-.6-19.6 0-18.7-1.6-39-3-40.7-.5-.4-1.2 2-1.6 5.5M408 606.8c-.6 1.5-1.3 5-1.6 8-.6 5.8.6 8.2 4.2 8.2s4.8-2.4 4.1-8c-1.4-10.3-4.4-14.1-6.7-8.3M230 669c-.8.5-1.1 1.3-.8 1.7 1 1 14.1 2.2 50.6 4.6 16.3 1 19.6 1.5 21.3 3 2 1.9 2 3.1 1.8 33.8-.1 32 .2 35 3.6 36.3 3.6 1.4 4-2.6 3.6-36-.2-24.6 0-32.7 1-33.8 1-1.3 11.6-1.5 81.3-1.5 71.8 0 112.5-.8 143.5-2.8 9.2-.6 10.4-1 10.7-2.6.3-1.8-.6-1.8-22.4-1.2-26.3.9-192.5 1-199.2.2a766 766 0 0 0-36-1 3723 3723 0 0 1-44.5-1.2c-8-.3-13.6-.1-14.5.5m322 1.1c-2 .4-3 .8-2.5.9.5 0 .3.6-.5 1.2-1.5 1 13.7.4 18.8-.8 7.9-1.9-7.2-3.1-15.8-1.3m-183 28.5c-4 9.4-8 22.3-8 26.3 0 9.2 11 13.1 18 6.2 3.9-3.9 1.7-16-5.9-33l-2-4.4-2.1 5"/>
</svg>